<?xml version="1.0" encoding="UTF-8" standalone="no"?>
<svg
   width="48"
   height="48"
   viewBox="0 0 48 48"
   fill="none"
   version="1.1"
   id="svg2337"
   xmlns="http://www.w3.org/2000/svg"
   xmlns:svg="http://www.w3.org/2000/svg">
  <defs
     id="defs2341" />
  <path
     d="m 16.2758,43.8262 c -2.8212,0 -5.2256,-0.9948 -7.21337,-2.9844 C 7.07334,38.8509 6.07879,36.4435 6.07879,33.6197 V 15.2479 c -1.12166,0 -2.08154,-0.4001 -2.87962,-1.2003 C 2.39972,13.2487 2,12.288 2,11.1652 V 7.08262 C 2,5.9599 2.39972,4.99844 3.19917,4.19825 3.99725,3.39942 4.95713,3 6.07879,3 H 26.4728 c 1.1216,0 2.0822,0.39942 2.8816,1.19825 0.7981,0.80019 1.1972,1.76165 1.1972,2.88437 v 4.08258 c 0,1.1228 -0.3991,2.0835 -1.1972,2.8824 -0.7994,0.8002 -1.76,1.2003 -2.8816,1.2003 v 6.1749 c -1.4276,0.9186 -2.6424,2.0665 -3.6444,3.4437 -1.0034,1.3786 -1.709,2.9354 -2.1169,4.6706 h -2.3963 c -0.5778,0 -1.0619,-0.196 -1.4521,-0.5879 -0.3915,-0.3906 -0.5873,-0.8751 -0.5873,-1.4535 0,-0.5783 0.1958,-1.0635 0.5873,-1.4554 0.3902,-0.3906 0.8743,-0.5859 1.4521,-0.5859 h 4.0788 v -2.0413 h -4.0788 c -0.5778,0 -1.0619,-0.1959 -1.4521,-0.5879 -0.3915,-0.3905 -0.5873,-0.875 -0.5873,-1.4534 0,-0.5784 0.1958,-1.0635 0.5873,-1.4554 0.3902,-0.3906 0.8743,-0.5859 1.4521,-0.5859 H 22.394 V 15.2479 H 10.1576 v 18.3718 c 0,1.7011 0.5948,3.147 1.7845,4.3378 1.1896,1.1907 2.6342,1.7861 4.3337,1.7861 1.0197,0 1.9544,-0.2211 2.8042,-0.6634 0.8497,-0.4423 1.5635,-1.0547 2.1413,-1.8372 0.2719,0.6805 0.5779,1.3269 0.9177,1.9393 0.34,0.6124 0.7478,1.2077 1.2237,1.7861 -0.9177,0.8846 -1.9796,1.582 -3.1855,2.0924 -1.2074,0.5103 -2.5078,0.7654 -3.9014,0.7654 z m 4.4357,-8.1652 h -2.3963 c -0.5778,0 -1.0619,-0.196 -1.4521,-0.5879 -0.3915,-0.3906 -0.5873,-0.875 -0.5873,-1.4534 0,-0.5784 0.1958,-1.0629 0.5873,-1.4534 0.3902,-0.392 0.8743,-0.5879 1.4521,-0.5879 h 2.0904 c -0.068,0.6804 -0.0762,1.3608 -0.0245,2.0413 0.0503,0.6804 0.1604,1.3609 0.3304,2.0413 z m 12.8992,2.0413 c 1.4275,0 2.6342,-0.4933 3.6199,-1.4799 0.9857,-0.9867 1.4786,-2.1945 1.4786,-3.6234 0,-1.4289 -0.4929,-2.6367 -1.4786,-3.6233 -0.9857,-0.9866 -2.1924,-1.48 -3.6199,-1.48 -1.4276,0 -2.6343,0.4934 -3.62,1.48 -0.9857,0.9866 -1.4785,2.1944 -1.4785,3.6233 0,1.4289 0.4928,2.6367 1.4785,3.6234 0.9857,0.9866 2.1924,1.4799 3.62,1.4799 z m 0,4.0826 c -2.5493,0 -4.7165,-0.8927 -6.5016,-2.6782 -1.7838,-1.7868 -2.6757,-3.956 -2.6757,-6.5077 0,-2.5516 0.8919,-4.7208 2.6757,-6.5077 1.7851,-1.7854 3.9523,-2.6782 6.5016,-2.6782 2.5492,0 4.7164,0.8928 6.5016,2.6782 1.7838,1.7869 2.6756,3.9561 2.6756,6.5077 0,0.8846 -0.1189,1.7351 -0.3568,2.5517 -0.238,0.8165 -0.5949,1.599 -1.0707,2.3475 l 4.0788,4.0826 C 45.8131,41.955 46,42.4313 46,43.0097 46,43.5881 45.8131,44.0644 45.4392,44.4386 45.0653,44.8129 44.5894,45 44.0116,45 43.4338,45 42.9579,44.8129 42.584,44.4386 L 38.5052,40.356 c -0.7478,0.4763 -1.5295,0.8336 -2.3453,1.0717 -0.8157,0.2382 -1.6655,0.3572 -2.5492,0.3572 z"
     fill="black"
     id="path2335"
     style="fill:#ffffff" />
</svg>
