<svg width="48" height="48" viewBox="0 0 48 48" fill="none" xmlns="http://www.w3.org/2000/svg">
<path d="M16.2758 43.8262C13.4546 43.8262 11.0502 42.8314 9.06243 40.8418C7.07334 38.8509 6.07879 36.4435 6.07879 33.6197V15.2479C4.95713 15.2479 3.99725 14.8478 3.19917 14.0476C2.39972 13.2487 2 12.288 2 11.1652V7.08262C2 5.9599 2.39972 4.99844 3.19917 4.19825C3.99725 3.39942 4.95713 3 6.07879 3H26.4728C27.5944 3 28.555 3.39942 29.3544 4.19825C30.1525 4.99844 30.5516 5.9599 30.5516 7.08262V11.1652C30.5516 12.288 30.1525 13.2487 29.3544 14.0476C28.555 14.8478 27.5944 15.2479 26.4728 15.2479V21.4228C25.0452 22.3414 23.8304 23.4893 22.8284 24.8665C21.825 26.2451 21.1194 27.8019 20.7115 29.5371H18.3152C17.7374 29.5371 17.2533 29.3411 16.8631 28.9492C16.4716 28.5586 16.2758 28.0741 16.2758 27.4957C16.2758 26.9174 16.4716 26.4322 16.8631 26.0403C17.2533 25.6497 17.7374 25.4544 18.3152 25.4544H22.394V23.4131H18.3152C17.7374 23.4131 17.2533 23.2172 16.8631 22.8252C16.4716 22.4347 16.2758 21.9502 16.2758 21.3718C16.2758 20.7934 16.4716 20.3083 16.8631 19.9164C17.2533 19.5258 17.7374 19.3305 18.3152 19.3305H22.394V15.2479H10.1576V33.6197C10.1576 35.3208 10.7524 36.7667 11.9421 37.9575C13.1317 39.1482 14.5763 39.7436 16.2758 39.7436C17.2955 39.7436 18.2302 39.5225 19.08 39.0802C19.9297 38.6379 20.6435 38.0255 21.2213 37.243C21.4932 37.9235 21.7992 38.5699 22.139 39.1823C22.479 39.7947 22.8868 40.39 23.3627 40.9684C22.445 41.853 21.3831 42.5504 20.1772 43.0608C18.9698 43.5711 17.6694 43.8262 16.2758 43.8262ZM20.7115 35.661H18.3152C17.7374 35.661 17.2533 35.465 16.8631 35.0731C16.4716 34.6825 16.2758 34.1981 16.2758 33.6197C16.2758 33.0413 16.4716 32.5568 16.8631 32.1663C17.2533 31.7743 17.7374 31.5784 18.3152 31.5784H20.4056C20.3376 32.2588 20.3294 32.9392 20.3811 33.6197C20.4314 34.3001 20.5415 34.9806 20.7115 35.661ZM33.6107 37.7023C35.0382 37.7023 36.2449 37.209 37.2306 36.2224C38.2163 35.2357 38.7092 34.0279 38.7092 32.599C38.7092 31.1701 38.2163 29.9623 37.2306 28.9757C36.2449 27.9891 35.0382 27.4957 33.6107 27.4957C32.1831 27.4957 30.9764 27.9891 29.9907 28.9757C29.005 29.9623 28.5122 31.1701 28.5122 32.599C28.5122 34.0279 29.005 35.2357 29.9907 36.2224C30.9764 37.209 32.1831 37.7023 33.6107 37.7023ZM33.6107 41.7849C31.0614 41.7849 28.8942 40.8922 27.1091 39.1067C25.3253 37.3199 24.4334 35.1507 24.4334 32.599C24.4334 30.0474 25.3253 27.8782 27.1091 26.0913C28.8942 24.3059 31.0614 23.4131 33.6107 23.4131C36.1599 23.4131 38.3271 24.3059 40.1123 26.0913C41.8961 27.8782 42.7879 30.0474 42.7879 32.599C42.7879 33.4836 42.669 34.3341 42.4311 35.1507C42.1931 35.9672 41.8362 36.7497 41.3604 37.4982L45.4392 41.5808C45.8131 41.955 46 42.4313 46 43.0097C46 43.5881 45.8131 44.0644 45.4392 44.4386C45.0653 44.8129 44.5894 45 44.0116 45C43.4338 45 42.9579 44.8129 42.584 44.4386L38.5052 40.356C37.7574 40.8323 36.9757 41.1896 36.1599 41.4277C35.3442 41.6659 34.4944 41.7849 33.6107 41.7849Z" fill="black"/>
</svg>
