<svg width="48" height="48" viewBox="0 0 48 48" fill="none" xmlns="http://www.w3.org/2000/svg">
<g clip-path="url(#clip0_46_29)">
<path d="M32.4458 0.227274C31.6932 0.671649 30.4403 1.92977 28.9515 3.7549L30.321 6.34352C31.2848 4.96877 32.2624 3.72715 33.2487 2.66852C32.9292 3.0184 31.9598 4.15202 30.4988 6.3964C31.9069 6.32702 34.068 6.0379 35.832 5.7379C36.3597 2.7964 35.3183 1.45202 35.3183 1.45202C35.3183 1.45202 33.9957 -0.686226 32.4458 0.227274Z" fill="#131515"/>
<path d="M27.8378 21.9735C27.6626 22.0039 27.4853 22.0373 27.2989 22.068C27.2989 22.068 27.2963 22.068 27.2963 22.0706L27.5738 22.029C27.66 22.0095 27.7489 21.993 27.8378 21.9735Z" fill="#131515"/>
<path opacity="0.35" d="M27.8378 21.9735C27.6626 22.0039 27.4853 22.0373 27.2989 22.068C27.2989 22.068 27.2963 22.068 27.2963 22.0706L27.5738 22.029C27.66 22.0095 27.7489 21.993 27.8378 21.9735Z" fill="#131515"/>
<path d="M28.296 19.7096C28.2933 19.7096 28.2933 19.7096 28.2933 19.7123C28.3211 19.7096 28.3515 19.704 28.3796 19.6984C28.4958 19.6819 28.6098 19.6624 28.7208 19.6346C28.5821 19.6598 28.4433 19.6845 28.296 19.7096Z" fill="#131515"/>
<path opacity="0.35" d="M28.296 19.7096C28.2933 19.7096 28.2933 19.7096 28.2933 19.7123C28.3211 19.7096 28.3515 19.704 28.3796 19.6984C28.4958 19.6819 28.6098 19.6624 28.7208 19.6346C28.5821 19.6598 28.4433 19.6845 28.296 19.7096Z" fill="#131515"/>
<path d="M26.2766 13.035C26.6858 12.2683 27.1071 11.5081 27.5403 10.7546C27.9733 9.99938 28.4215 9.25298 28.8847 8.51588C28.9098 8.47388 28.9402 8.42963 28.9653 8.38801C29.4008 7.6974 29.8517 7.01673 30.3179 6.34651L28.9488 3.75751C28.8439 3.88529 28.7401 4.01404 28.6376 4.14376C28.2193 4.6655 27.81 5.19432 27.4098 5.73001C26.9126 6.39593 26.4264 7.07002 25.9514 7.75201C25.4789 8.43041 25.016 9.11548 24.5628 9.80701C24.1589 10.4238 23.7635 11.0461 23.3767 11.6738C23.3628 11.6963 23.3489 11.721 23.3354 11.7461L25.1212 15.2738C25.4946 14.5215 25.8798 13.7752 26.2766 13.035Z" fill="#131515"/>
<path d="M18.1436 32.9006C17.9022 33.561 17.6652 34.2231 17.4326 34.8866C17.4296 34.8949 17.427 34.9061 17.4214 34.9144C17.388 35.0089 17.352 35.106 17.3216 35.2005C17.1604 35.6561 17.0216 36.0671 16.7021 36.9979C17.2271 37.2368 17.6494 37.8698 18.0491 38.5864C18.0123 37.8296 17.6766 37.1184 17.1158 36.609C19.7074 36.7253 21.9409 36.0701 23.0963 34.1756C23.199 34.0061 23.2935 33.831 23.3794 33.6394C22.8544 34.3061 22.2019 34.5866 20.9768 34.5199C22.7824 33.7118 23.685 32.9366 24.4879 31.6534C24.6769 31.3481 24.8629 31.0174 25.0519 30.648C23.4739 32.2673 21.6491 32.7285 19.7243 32.3786L18.2798 32.5369C18.2325 32.6591 18.1909 32.7784 18.1436 32.9006Z" fill="#131515"/>
<path d="M18.8186 29.67C19.1298 28.8649 19.452 28.0481 19.7797 27.2261C20.0977 26.431 20.4218 25.6383 20.7521 24.8482C21.0871 24.0477 21.4259 23.2487 21.7683 22.4512C22.1186 21.6375 22.4797 20.8264 22.8491 20.0179C23.2097 19.2217 23.5782 18.4292 23.9546 17.6404C24.0877 17.3569 24.2268 17.0737 24.363 16.7929C24.5992 16.3069 24.8377 15.8235 25.0792 15.3457C25.0935 15.321 25.1043 15.2932 25.1182 15.2681L23.3325 11.7405C23.3045 11.7887 23.2748 11.836 23.2436 11.8822C22.8214 12.5705 22.4094 13.265 22.0076 13.9654C21.5931 14.6885 21.1901 15.4182 20.799 16.1542C20.4668 16.781 20.1417 17.4115 19.824 18.0457C19.7602 18.1732 19.6991 18.3041 19.6353 18.432C19.2644 19.1967 18.9115 19.97 18.5771 20.7514C18.2357 21.5453 17.9181 22.3493 17.6246 23.1622C17.4408 23.6647 17.277 24.1485 17.1243 24.615C16.9995 25.0121 16.8825 25.4122 16.7658 25.8094C16.5011 26.7315 16.2722 27.6636 16.0796 28.6035L17.8743 32.145C18.1106 31.512 18.3547 30.8674 18.6048 30.2175C18.6798 30.0315 18.7466 29.8481 18.8186 29.67Z" fill="#131515"/>
<path d="M16.0605 28.7231C15.8355 29.8564 15.6743 30.9844 15.5937 32.1064L15.5854 32.2226C15.0244 31.3256 13.5274 30.4508 13.53 30.459C14.6052 32.0145 15.4189 33.5591 15.5382 35.0753C14.9633 35.1923 14.1769 35.0228 13.269 34.6894C14.2163 35.5616 14.9273 35.8005 15.2078 35.8669C14.3355 35.9228 13.4303 36.5201 12.516 37.209C13.8522 36.6645 14.9329 36.4478 15.705 36.6229C14.4773 40.0946 13.2495 43.9279 12.0188 48C12.3968 47.889 12.6218 47.6333 12.7467 47.2916C12.966 46.5555 14.4192 41.7169 16.6992 35.3644C16.7659 35.184 16.83 35.0006 16.8964 34.8199C16.9133 34.7674 16.9328 34.7171 16.9523 34.6699C17.1912 34.0035 17.4435 33.3229 17.6993 32.6284C17.7578 32.4701 17.8159 32.3119 17.877 32.1536C17.877 32.1506 17.88 32.148 17.88 32.145L16.0827 28.6035C16.0761 28.6436 16.069 28.6835 16.0605 28.7231Z" fill="#131515"/>
<path d="M25.3962 15.5625C25.3437 15.6682 25.2934 15.7736 25.2405 15.8794C25.0853 16.1985 24.9293 16.5236 24.7684 16.857C24.5959 17.2181 24.4242 17.5845 24.249 17.9625C24.1602 18.1515 24.0713 18.3431 23.9824 18.5374C23.7082 19.1356 23.4378 19.7357 23.1713 20.3374C22.8208 21.1251 22.4773 21.9158 22.1408 22.7096C21.8104 23.4926 21.4684 24.3011 21.1298 25.1396C20.8047 25.9346 20.4773 26.7566 20.1435 27.6007C19.8383 28.3743 19.5393 29.1503 19.2465 29.9287C19.2327 29.9647 19.2188 30.0064 19.2049 30.0424C18.9049 30.834 18.6019 31.6481 18.2993 32.4814C18.2937 32.5005 18.2854 32.5174 18.2798 32.5395L19.7243 32.3812C19.6965 32.3756 19.6658 32.373 19.638 32.3674C21.363 32.1536 23.6603 30.8617 25.1408 29.2702C25.824 28.5371 26.4435 27.6705 27.0158 26.6565C27.4407 25.9039 27.8434 25.065 28.2267 24.1402C28.5804 23.2749 28.901 22.3964 29.1878 21.5066C28.7903 21.7151 28.3377 21.8704 27.8378 21.9761C27.7489 21.9956 27.66 22.0121 27.5685 22.0286C27.4767 22.0455 27.3848 22.0594 27.2907 22.0706C27.2907 22.0706 27.2933 22.0706 27.2933 22.068C28.9043 21.4485 29.9183 20.2541 30.6544 18.7905C30.2322 19.0792 29.5433 19.4569 28.7183 19.6372C28.5767 19.6682 28.4342 19.6942 28.2908 19.7152H28.296C28.857 19.482 29.3265 19.218 29.7349 18.9097C29.8238 18.843 29.91 18.7762 29.9877 18.7042C30.1125 18.5955 30.2295 18.4819 30.3462 18.3652C30.4182 18.2876 30.4875 18.2096 30.5573 18.129C30.7185 17.9377 30.8685 17.7319 31.0073 17.5099C31.0485 17.4401 31.0935 17.3737 31.1322 17.3014C31.1877 17.1986 31.2375 17.0959 31.2878 16.9987C31.4865 16.6036 31.669 16.2005 31.8349 15.7905C31.9069 15.6127 31.968 15.4515 32.0235 15.2959C32.046 15.2347 32.0652 15.1766 32.0847 15.1181C32.1432 14.9486 32.1874 14.7986 32.2234 14.6655C32.2793 14.4652 32.3127 14.307 32.3292 14.193C32.2737 14.235 32.2129 14.2792 32.1402 14.3209C31.6542 14.6126 30.8209 14.8736 30.1489 14.9989C30.1403 15.0015 30.1294 15.0015 30.1182 15.0041C30.0488 15.0154 29.985 15.0266 29.9157 15.0349L29.9487 15.018L25.413 15.5152C25.4103 15.5319 25.4046 15.5479 25.3962 15.5625Z" fill="#131515"/>
<path d="M30.5013 6.39635C30.0487 7.09465 29.6089 7.80114 29.1821 8.51548C28.7109 9.30859 28.2516 10.1087 27.8043 10.9155C27.3837 11.6797 26.9725 12.4492 26.571 13.2236C26.1789 13.9835 25.7946 14.7474 25.4182 15.5152L29.9542 15.018C31.2765 14.4097 31.8652 13.8626 32.4375 13.0654C32.5875 12.846 32.7431 12.6184 32.8931 12.3791C33.3733 11.6257 33.8173 10.8498 34.2236 10.0541C34.6177 9.28535 34.965 8.5241 35.2316 7.83523C35.387 7.44293 35.5206 7.04231 35.6317 6.63523C35.715 6.32135 35.7791 6.02135 35.829 5.73523C34.0706 6.03785 31.9068 6.32698 30.5013 6.39635Z" fill="#131515"/>
<path d="M27.5685 22.0234C27.4766 22.0399 27.3848 22.0538 27.2906 22.065C27.3851 22.0568 27.4796 22.0399 27.5685 22.0234Z" fill="#131515"/>
<path opacity="0.35" d="M27.5685 22.0234C27.4766 22.0399 27.3848 22.0538 27.2906 22.065C27.3851 22.0568 27.4796 22.0399 27.5685 22.0234Z" fill="#131515"/>
<path d="M27.5685 22.0234C27.4766 22.0399 27.3848 22.0538 27.2906 22.065C27.3851 22.0568 27.4796 22.0399 27.5685 22.0234Z" fill="#131515"/>
<path d="M28.2933 19.7122C28.3211 19.7096 28.3515 19.704 28.3796 19.6984C28.3515 19.7014 28.3237 19.7096 28.2933 19.7122Z" fill="#131515"/>
<path opacity="0.35" d="M28.2933 19.7122C28.3211 19.7096 28.3515 19.704 28.3796 19.6984C28.3515 19.7014 28.3237 19.7096 28.2933 19.7122Z" fill="#131515"/>
<path d="M28.2933 19.7122C28.3211 19.7096 28.3515 19.704 28.3796 19.6984C28.3515 19.7014 28.3237 19.7096 28.2933 19.7122Z" fill="#131515"/>
</g>
<defs>
<clipPath id="clip0_46_29">
<rect width="48" height="48" fill="white"/>
</clipPath>
</defs>
</svg>
