<?xml version="1.0" encoding="UTF-8" standalone="no"?>
<svg
   width="48"
   height="48"
   viewBox="0 0 48 48"
   fill="none"
   version="1.1"
   id="svg2214"
   xmlns="http://www.w3.org/2000/svg"
   xmlns:svg="http://www.w3.org/2000/svg">
  <g
     clip-path="url(#clip0_46_29)"
     id="g2207"
     style="fill:#ffffff">
    <path
       d="M 32.4458,0.227274 C 31.6932,0.671649 30.4403,1.92977 28.9515,3.7549 L 30.321,6.34352 C 31.2848,4.96877 32.2624,3.72715 33.2487,2.66852 32.9292,3.0184 31.9598,4.15202 30.4988,6.3964 31.9069,6.32702 34.068,6.0379 35.832,5.7379 36.3597,2.7964 35.3183,1.45202 35.3183,1.45202 c 0,0 -1.3226,-2.138246 -2.8725,-1.224746 z"
       fill="#131515"
       id="path2173"
       style="fill:#ffffff" />
    <path
       d="m 27.8378,21.9735 c -0.1752,0.0304 -0.3525,0.0638 -0.5389,0.0945 0,0 -0.0026,0 -0.0026,0.0026 l 0.2775,-0.0416 c 0.0862,-0.0195 0.1751,-0.036 0.264,-0.0555 z"
       fill="#131515"
       id="path2175"
       style="fill:#ffffff" />
    <path
       opacity="0.35"
       d="m 27.8378,21.9735 c -0.1752,0.0304 -0.3525,0.0638 -0.5389,0.0945 0,0 -0.0026,0 -0.0026,0.0026 l 0.2775,-0.0416 c 0.0862,-0.0195 0.1751,-0.036 0.264,-0.0555 z"
       fill="#131515"
       id="path2177"
       style="fill:#ffffff" />
    <path
       d="m 28.296,19.7096 c -0.0027,0 -0.0027,0 -0.0027,0.0027 0.0278,-0.0027 0.0582,-0.0083 0.0863,-0.0139 0.1162,-0.0165 0.2302,-0.036 0.3412,-0.0638 -0.1387,0.0252 -0.2775,0.0499 -0.4248,0.075 z"
       fill="#131515"
       id="path2179"
       style="fill:#ffffff" />
    <path
       opacity="0.35"
       d="m 28.296,19.7096 c -0.0027,0 -0.0027,0 -0.0027,0.0027 0.0278,-0.0027 0.0582,-0.0083 0.0863,-0.0139 0.1162,-0.0165 0.2302,-0.036 0.3412,-0.0638 -0.1387,0.0252 -0.2775,0.0499 -0.4248,0.075 z"
       fill="#131515"
       id="path2181"
       style="fill:#ffffff" />
    <path
       d="m 26.2766,13.035 c 0.4092,-0.7667 0.8305,-1.5269 1.2637,-2.2804 0.433,-0.75522 0.8812,-1.50162 1.3444,-2.23872 0.0251,-0.042 0.0555,-0.08625 0.0806,-0.12787 0.4355,-0.69061 0.8864,-1.37128 1.3526,-2.0415 l -1.3691,-2.589 C 28.8439,3.88529 28.7401,4.01404 28.6376,4.14376 28.2193,4.6655 27.81,5.19432 27.4098,5.73001 c -0.4972,0.66592 -0.9834,1.34001 -1.4584,2.022 -0.4725,0.6784 -0.9354,1.36347 -1.3886,2.055 -0.4039,0.61679 -0.7993,1.23909 -1.1861,1.86679 -0.0139,0.0225 -0.0278,0.0472 -0.0413,0.0723 l 1.7858,3.5277 c 0.3734,-0.7523 0.7586,-1.4986 1.1554,-2.2388 z"
       fill="#131515"
       id="path2183"
       style="fill:#ffffff" />
    <path
       d="m 18.1436,32.9006 c -0.2414,0.6604 -0.4784,1.3225 -0.711,1.986 -0.003,0.0083 -0.0056,0.0195 -0.0112,0.0278 -0.0334,0.0945 -0.0694,0.1916 -0.0998,0.2861 -0.1612,0.4556 -0.3,0.8666 -0.6195,1.7974 0.525,0.2389 0.9473,0.8719 1.347,1.5885 -0.0368,-0.7568 -0.3725,-1.468 -0.9333,-1.9774 2.5916,0.1163 4.8251,-0.5389 5.9805,-2.4334 0.1027,-0.1695 0.1972,-0.3446 0.2831,-0.5362 -0.525,0.6667 -1.1775,0.9472 -2.4026,0.8805 1.8056,-0.8081 2.7082,-1.5833 3.5111,-2.8665 0.189,-0.3053 0.375,-0.636 0.564,-1.0054 -1.578,1.6193 -3.4028,2.0805 -5.3276,1.7306 l -1.4445,0.1583 c -0.0473,0.1222 -0.0889,0.2415 -0.1362,0.3637 z"
       fill="#131515"
       id="path2185"
       style="fill:#ffffff" />
    <path
       d="m 18.8186,29.67 c 0.3112,-0.8051 0.6334,-1.6219 0.9611,-2.4439 0.318,-0.7951 0.6421,-1.5878 0.9724,-2.3779 0.335,-0.8005 0.6738,-1.5995 1.0162,-2.397 0.3503,-0.8137 0.7114,-1.6248 1.0808,-2.4333 0.3606,-0.7962 0.7291,-1.5887 1.1055,-2.3775 0.1331,-0.2835 0.2722,-0.5667 0.4084,-0.8475 0.2362,-0.486 0.4747,-0.9694 0.7162,-1.4472 0.0143,-0.0247 0.0251,-0.0525 0.039,-0.0776 l -1.7857,-3.5276 c -0.028,0.0482 -0.0577,0.0955 -0.0889,0.1417 -0.4222,0.6883 -0.8342,1.3828 -1.236,2.0832 -0.4145,0.7231 -0.8175,1.4528 -1.2086,2.1888 -0.3322,0.6268 -0.6573,1.2573 -0.975,1.8915 -0.0638,0.1275 -0.1249,0.2584 -0.1887,0.3863 -0.3709,0.7647 -0.7238,1.538 -1.0582,2.3194 -0.3414,0.7939 -0.659,1.5979 -0.9525,2.4108 -0.1838,0.5025 -0.3476,0.9863 -0.5003,1.4528 -0.1248,0.3971 -0.2418,0.7972 -0.3585,1.1944 -0.2647,0.9221 -0.4936,1.8542 -0.6862,2.7941 l 1.7947,3.5415 c 0.2363,-0.633 0.4804,-1.2776 0.7305,-1.9275 0.075,-0.186 0.1418,-0.3694 0.2138,-0.5475 z"
       fill="#131515"
       id="path2187"
       style="fill:#ffffff" />
    <path
       d="m 16.0605,28.7231 c -0.225,1.1333 -0.3862,2.2613 -0.4668,3.3833 l -0.0083,0.1162 c -0.561,-0.897 -2.058,-1.7718 -2.0554,-1.7636 1.0752,1.5555 1.8889,3.1001 2.0082,4.6163 -0.5749,0.117 -1.3613,-0.0525 -2.2692,-0.3859 0.9473,0.8722 1.6583,1.1111 1.9388,1.1775 -0.8723,0.0559 -1.7775,0.6532 -2.6918,1.3421 1.3362,-0.5445 2.4169,-0.7612 3.189,-0.5861 -1.2277,3.4717 -2.4555,7.305 -3.6862,11.3771 0.378,-0.111 0.603,-0.3667 0.7279,-0.7084 0.2193,-0.7361 1.6725,-5.5747 3.9525,-11.9272 0.0667,-0.1804 0.1308,-0.3638 0.1972,-0.5445 0.0169,-0.0525 0.0364,-0.1028 0.0559,-0.15 0.2389,-0.6664 0.4912,-1.347 0.747,-2.0415 0.0585,-0.1583 0.1166,-0.3165 0.1777,-0.4748 0,-0.003 0.003,-0.0056 0.003,-0.0086 l -1.7973,-3.5415 c -0.0066,0.0401 -0.0137,0.08 -0.0222,0.1196 z"
       fill="#131515"
       id="path2189"
       style="fill:#ffffff" />
    <path
       d="m 25.3962,15.5625 c -0.0525,0.1057 -0.1028,0.2111 -0.1557,0.3169 -0.1552,0.3191 -0.3112,0.6442 -0.4721,0.9776 -0.1725,0.3611 -0.3442,0.7275 -0.5194,1.1055 -0.0888,0.189 -0.1777,0.3806 -0.2666,0.5749 -0.2742,0.5982 -0.5446,1.1983 -0.8111,1.8 -0.3505,0.7877 -0.694,1.5784 -1.0305,2.3722 -0.3304,0.783 -0.6724,1.5915 -1.011,2.43 -0.3251,0.795 -0.6525,1.617 -0.9863,2.4611 -0.3052,0.7736 -0.6042,1.5496 -0.897,2.328 -0.0138,0.036 -0.0277,0.0777 -0.0416,0.1137 -0.3,0.7916 -0.603,1.6057 -0.9056,2.439 -0.0056,0.0191 -0.0139,0.036 -0.0195,0.0581 l 1.4445,-0.1583 c -0.0278,-0.0056 -0.0585,-0.0082 -0.0863,-0.0138 1.725,-0.2138 4.0223,-1.5057 5.5028,-3.0972 0.6832,-0.7331 1.3027,-1.5997 1.875,-2.6137 0.4249,-0.7526 0.8276,-1.5915 1.2109,-2.5163 0.3537,-0.8653 0.6743,-1.7438 0.9611,-2.6336 -0.3975,0.2085 -0.8501,0.3638 -1.35,0.4695 -0.0889,0.0195 -0.1778,0.036 -0.2693,0.0525 -0.0918,0.0169 -0.1837,0.0308 -0.2778,0.042 0,0 0.0026,0 0.0026,-0.0026 1.611,-0.6195 2.625,-1.8139 3.3611,-3.2775 -0.4222,0.2887 -1.1111,0.6664 -1.9361,0.8467 -0.1416,0.031 -0.2841,0.057 -0.4275,0.078 h 0.0052 c 0.561,-0.2332 1.0305,-0.4972 1.4389,-0.8055 0.0889,-0.0667 0.1751,-0.1335 0.2528,-0.2055 0.1248,-0.1087 0.2418,-0.2223 0.3585,-0.339 0.072,-0.0776 0.1413,-0.1556 0.2111,-0.2362 0.1612,-0.1913 0.3112,-0.3971 0.45,-0.6191 0.0412,-0.0698 0.0862,-0.1362 0.1249,-0.2085 0.0555,-0.1028 0.1053,-0.2055 0.1556,-0.3027 0.1987,-0.3951 0.3812,-0.7982 0.5471,-1.2082 0.072,-0.1778 0.1331,-0.339 0.1886,-0.4946 0.0225,-0.0612 0.0417,-0.1193 0.0612,-0.1778 0.0585,-0.1695 0.1027,-0.3195 0.1387,-0.4526 0.0559,-0.2003 0.0893,-0.3585 0.1058,-0.4725 -0.0555,0.042 -0.1163,0.0862 -0.189,0.1279 -0.486,0.2917 -1.3193,0.5527 -1.9913,0.678 -0.0086,0.0026 -0.0195,0.0026 -0.0307,0.0052 -0.0694,0.0113 -0.1332,0.0225 -0.2025,0.0308 l 0.033,-0.0169 -4.5357,0.4972 c -0.0027,0.0167 -0.0084,0.0327 -0.0168,0.0473 z"
       fill="#131515"
       id="path2191"
       style="fill:#ffffff" />
    <path
       d="m 30.5013,6.39635 c -0.4526,0.6983 -0.8924,1.40479 -1.3192,2.11913 -0.4712,0.79311 -0.9305,1.59322 -1.3778,2.40002 -0.4206,0.7642 -0.8318,1.5337 -1.2333,2.3081 -0.3921,0.7599 -0.7764,1.5238 -1.1528,2.2916 l 4.536,-0.4972 c 1.3223,-0.6083 1.911,-1.1554 2.4833,-1.9526 0.15,-0.2194 0.3056,-0.447 0.4556,-0.6863 0.4802,-0.7534 0.9242,-1.5293 1.3305,-2.325 0.3941,-0.76875 0.7414,-1.53 1.008,-2.21887 0.1554,-0.3923 0.289,-0.79292 0.4001,-1.2 0.0833,-0.31388 0.1474,-0.61388 0.1973,-0.9 -1.7584,0.30262 -3.9222,0.59175 -5.3277,0.66112 z"
       fill="#131515"
       id="path2193"
       style="fill:#ffffff" />
    <path
       d="m 27.5685,22.0234 c -0.0919,0.0165 -0.1837,0.0304 -0.2779,0.0416 0.0945,-0.0082 0.189,-0.0251 0.2779,-0.0416 z"
       fill="#131515"
       id="path2195"
       style="fill:#ffffff" />
    <path
       opacity="0.35"
       d="m 27.5685,22.0234 c -0.0919,0.0165 -0.1837,0.0304 -0.2779,0.0416 0.0945,-0.0082 0.189,-0.0251 0.2779,-0.0416 z"
       fill="#131515"
       id="path2197"
       style="fill:#ffffff" />
    <path
       d="m 27.5685,22.0234 c -0.0919,0.0165 -0.1837,0.0304 -0.2779,0.0416 0.0945,-0.0082 0.189,-0.0251 0.2779,-0.0416 z"
       fill="#131515"
       id="path2199"
       style="fill:#ffffff" />
    <path
       d="m 28.2933,19.7122 c 0.0278,-0.0026 0.0582,-0.0082 0.0863,-0.0138 -0.0281,0.003 -0.0559,0.0112 -0.0863,0.0138 z"
       fill="#131515"
       id="path2201"
       style="fill:#ffffff" />
    <path
       opacity="0.35"
       d="m 28.2933,19.7122 c 0.0278,-0.0026 0.0582,-0.0082 0.0863,-0.0138 -0.0281,0.003 -0.0559,0.0112 -0.0863,0.0138 z"
       fill="#131515"
       id="path2203"
       style="fill:#ffffff" />
    <path
       d="m 28.2933,19.7122 c 0.0278,-0.0026 0.0582,-0.0082 0.0863,-0.0138 -0.0281,0.003 -0.0559,0.0112 -0.0863,0.0138 z"
       fill="#131515"
       id="path2205"
       style="fill:#ffffff" />
  </g>
  <defs
     id="defs2212">
    <clipPath
       id="clip0_46_29">
      <rect
         width="48"
         height="48"
         fill="#ffffff"
         id="rect2209"
         x="0"
         y="0" />
    </clipPath>
  </defs>
</svg>
