<svg width="32" height="32" viewBox="0 0 32 32" fill="none" xmlns="http://www.w3.org/2000/svg">
<path d="M7.62356 31.3676C7.20785 30.946 7 30.4468 7 29.87C7 29.2944 7.20785 28.7958 7.62356 28.3742L19.8037 16.0211L7.58199 3.62582C7.194 3.23232 7 2.74045 7 2.1502C7 1.55995 7.20785 1.05402 7.62356 0.632411C8.03926 0.210804 8.53145 0 9.10014 0C9.66771 0 10.1594 0.210804 10.5751 0.632411L24.5427 14.8406C24.709 15.0092 24.8271 15.1919 24.8969 15.3887C24.9656 15.5854 25 15.7962 25 16.0211C25 16.2459 24.9656 16.4567 24.8969 16.6535C24.8271 16.8502 24.709 17.0329 24.5427 17.2016L10.5335 31.4097C10.1455 31.8032 9.66771 32 9.10014 32C8.53145 32 8.03926 31.7892 7.62356 31.3676Z" fill="#FF88FF"/>
</svg>
