<svg width="32" height="32" viewBox="0 0 32 32" fill="none" xmlns="http://www.w3.org/2000/svg">
<g clip-path="url(#clip0_63_793)">
<path d="M14.4332 32.3668L0.456221 18.1821C0.290323 18.0132 0.173088 17.8303 0.104516 17.6332C0.0348387 17.4362 0 17.2252 0 17C0 16.7748 0.0348387 16.5638 0.104516 16.3668C0.173088 16.1697 0.290323 15.9868 0.456221 15.8179L14.4332 1.59103C14.8203 1.19701 15.3041 1 15.8848 1C16.4654 1 16.9631 1.21108 17.3779 1.63325C17.7926 2.05541 18 2.54793 18 3.11082C18 3.6737 17.7926 4.16623 17.3779 4.58839L5.18433 17L17.3779 29.4116C17.765 29.8056 17.9585 30.2908 17.9585 30.8672C17.9585 31.4447 17.7512 31.9446 17.3364 32.3668C16.9217 32.7889 16.4378 33 15.8848 33C15.3318 33 14.8479 32.7889 14.4332 32.3668Z" fill="#FF88FF"/>
</g>
<defs>
<clipPath id="clip0_63_793">
<rect width="32" height="32" fill="white"/>
</clipPath>
</defs>
</svg>
