<?xml version="1.0" encoding="UTF-8" standalone="no"?>
<svg
   width="48"
   height="48"
   viewBox="0 0 48 48"
   fill="none"
   version="1.1"
   id="svg2050"
   xmlns="http://www.w3.org/2000/svg"
   xmlns:svg="http://www.w3.org/2000/svg">
  <defs
     id="defs2054" />
  <path
     d="M 22,6 V 16.3164 C 21.306,16.0344 19.8083,16 19.0703,16 13.5183,16 8.37891,18.612 8.37891,26 8.37891,34.84 15.34,36 20,36 c 1.84,0 6,-0.1817 8,-0.7617 V 6 Z m 10,0 v 6 h 6 V 6 Z m 0,10 v 17.4023 c 0,3.032 -1.844,6.188 -6,8 l 5.7188,2.5899 C 37.5308,41.9922 38,35.4023 38,33.4023 V 16 Z m -12.0586,5.1016 c 0.64,0 1.3586,0.1173 2.0586,0.2773 v 9.4063 c -0.7,0.16 -1.4186,0.2812 -2.0586,0.2812 -2.62,0 -5.1602,-0.8264 -5.1602,-5.0664 0,-4.24 2.5402,-4.8984 5.1602,-4.8984 z"
     fill="black"
     id="path2048"
     style="fill:#ffffff" />
</svg>
