<svg width="48" height="48" viewBox="0 0 48 48" fill="none" xmlns="http://www.w3.org/2000/svg">
<path d="M22 6V16.3164C21.306 16.0344 19.8083 16 19.0703 16C13.5183 16 8.37891 18.612 8.37891 26C8.37891 34.84 15.34 36 20 36C21.84 36 26 35.8183 28 35.2383V6H22ZM32 6V12H38V6H32ZM32 16V33.4023C32 36.4343 30.156 39.5903 26 41.4023L31.7188 43.9922C37.5308 41.9922 38 35.4023 38 33.4023V16H32ZM19.9414 21.1016C20.5814 21.1016 21.3 21.2189 22 21.3789V30.7852C21.3 30.9452 20.5814 31.0664 19.9414 31.0664C17.3214 31.0664 14.7812 30.24 14.7812 26C14.7812 21.76 17.3214 21.1016 19.9414 21.1016Z" fill="black"/>
</svg>
