<svg width="48" height="48" viewBox="0 0 48 48" fill="none" xmlns="http://www.w3.org/2000/svg">
<g clip-path="url(#clip0_41_70)">
<path d="M26 2V8H32V2H26ZM10 10V16H16V10H10ZM18 10V16H24V10H18ZM26 10V16H32V10H26ZM36.625 15.6875C35.875 15.7578 34.5781 17.0156 34 18.0625C32.5391 20.6797 33.6563 23.9766 33.9375 24.6875C33.2891 25.5234 30 26 30 26H1.9375C0.296879 26.0547 2.6779e-06 28.4922 2.6779e-06 29.0625C-0.0703099 39 7.42188 43.9766 15.9375 44C28.2656 44.0391 35.7422 39.125 40.0625 32H46C44.9844 31.7422 43.6406 31.3203 44 30C43.6016 30.5859 42.1875 31.1641 40.5 31.25C40.6719 30.9531 40.8438 30.6797 41 30.375C43.6484 30.2188 45.1719 28.9766 46.3125 27.875C47.6172 26.6172 47.9219 25.9062 48 25.1875C48.125 24.1016 45.2344 22.2266 41.6875 21.8125C41.3516 18.5234 37.7422 15.5781 36.625 15.6875ZM2 18V24H8V18H2ZM10 18V24H16V18H10ZM18 18V24H24V18H18ZM26 18V24H32V18H26ZM36.875 19.875C37.4531 20.5234 38.625 21.9844 38.875 23.3125C39.0391 24.1797 40.2422 24.8594 41.125 24.9375C42.5 25.0625 43.3438 25.3281 44.125 25.5625C43.8672 26.0547 42.1094 27.1016 39.5625 27C38.8828 26.9688 38.2578 27.375 38 28C37.8438 28.3984 37.2656 29.2656 36.4375 30.3125C36.2656 30.2109 36.1016 30.1172 35.9375 30C35.0313 30.8516 30.7109 32.6172 27.9375 30C26.375 31.8359 21.5 31.8359 19.9375 30C19.4297 31.4062 13.1875 31.8047 11.9375 30C11.5859 31.625 5.98438 32.3984 3.9375 30V31C3.89844 30.6562 3.89063 30.3125 3.9375 30C3.9375 30 8.57813 30 11.9375 30C15.2969 30 16.1641 30 19.9375 30C23.7109 30 26.6797 30.0078 27.9375 30C28.2656 30 29.9688 30 30 30C34.0625 29.75 36.0234 27.5234 36.6875 27C37.1953 26.6016 37.7031 25.5703 37.25 24.8125C37.2188 24.7578 36.0078 21.3203 36.875 19.875ZM4.125 32H34.9375C31.4766 35.625 25.1406 40.2031 15.9375 40C13.1484 39.9375 10.2031 39.5078 8.1875 37.9375C11.5859 37.8203 14.5625 37.1875 14.5625 37.1875C15.4297 37.0234 15.9766 36.1797 15.8125 35.3125C15.6484 34.4453 14.8047 33.8359 13.9375 34C13.8672 34.0156 9.33594 35.125 5.1875 34.625C4.95313 34.1953 4.4375 33.1406 4.125 32ZM16.875 34C16.3594 34 15.9375 34.4219 15.9375 34.9375C15.9375 35.4531 16.3594 35.875 16.875 35.875C17.3906 35.875 17.8125 35.4531 17.8125 34.9375C17.8125 34.8125 17.7969 34.7344 17.75 34.625C17.6875 34.7422 17.5156 34.8125 17.375 34.8125C17.1641 34.8125 17.0625 34.5859 17.0625 34.375C17.0625 34.2344 17.0703 34.1875 17.1875 34.125C17.0859 34.0859 16.9922 34 16.875 34Z" fill="black"/>
</g>
<defs>
<clipPath id="clip0_41_70">
<rect width="48" height="48" fill="white"/>
</clipPath>
</defs>
</svg>
