<?xml version="1.0" encoding="UTF-8" standalone="no"?>
<svg
   width="48"
   height="48"
   viewBox="0 0 48 48"
   fill="none"
   version="1.1"
   id="svg1927"
   xmlns="http://www.w3.org/2000/svg"
   xmlns:svg="http://www.w3.org/2000/svg">
  <g
     clip-path="url(#clip0_41_70)"
     id="g1920"
     style="fill:#ffffff">
    <path
       d="m 26,2 v 6 h 6 V 2 Z m -16,8 v 6 h 6 v -6 z m 8,0 v 6 h 6 v -6 z m 8,0 v 6 h 6 v -6 z m 10.625,5.6875 c -0.75,0.0703 -2.0469,1.3281 -2.625,2.375 -1.4609,2.6172 -0.3437,5.9141 -0.0625,6.625 C 33.2891,25.5234 30,26 30,26 H 1.9375 C 0.296879,26.0547 2.6779e-6,28.4922 2.6779e-6,29.0625 -0.0703099,39 7.42188,43.9766 15.9375,44 28.2656,44.0391 35.7422,39.125 40.0625,32 H 46 c -1.0156,-0.2578 -2.3594,-0.6797 -2,-2 -0.3984,0.5859 -1.8125,1.1641 -3.5,1.25 0.1719,-0.2969 0.3438,-0.5703 0.5,-0.875 2.6484,-0.1562 4.1719,-1.3984 5.3125,-2.5 1.3047,-1.2578 1.6094,-1.9688 1.6875,-2.6875 0.125,-1.0859 -2.7656,-2.9609 -6.3125,-3.375 -0.3359,-3.2891 -3.9453,-6.2344 -5.0625,-6.125 z M 2,18 v 6 h 6 v -6 z m 8,0 v 6 h 6 v -6 z m 8,0 v 6 h 6 v -6 z m 8,0 v 6 h 6 v -6 z m 10.875,1.875 c 0.5781,0.6484 1.75,2.1094 2,3.4375 0.1641,0.8672 1.3672,1.5469 2.25,1.625 1.375,0.125 2.2188,0.3906 3,0.625 C 43.8672,26.0547 42.1094,27.1016 39.5625,27 38.8828,26.9688 38.2578,27.375 38,28 c -0.1562,0.3984 -0.7344,1.2656 -1.5625,2.3125 -0.1719,-0.1016 -0.3359,-0.1953 -0.5,-0.3125 -0.9062,0.8516 -5.2266,2.6172 -8,0 -1.5625,1.8359 -6.4375,1.8359 -8,0 -0.5078,1.4062 -6.75,1.8047 -8,0 -0.3516,1.625 -5.95312,2.3984 -8,0 v 1 c -0.03906,-0.3438 -0.04687,-0.6875 0,-1 0,0 4.64063,0 8,0 3.3594,0 4.2266,0 8,0 3.7734,0 6.7422,0.0078 8,0 0.3281,0 2.0313,0 2.0625,0 4.0625,-0.25 6.0234,-2.4766 6.6875,-3 0.5078,-0.3984 1.0156,-1.4297 0.5625,-2.1875 -0.0312,-0.0547 -1.2422,-3.4922 -0.375,-4.9375 z M 4.125,32 h 30.8125 c -3.4609,3.625 -9.7969,8.2031 -19,8 -2.7891,-0.0625 -5.7344,-0.4922 -7.75,-2.0625 3.3984,-0.1172 6.375,-0.75 6.375,-0.75 0.8672,-0.1641 1.4141,-1.0078 1.25,-1.875 C 15.6484,34.4453 14.8047,33.8359 13.9375,34 13.8672,34.0156 9.33594,35.125 5.1875,34.625 4.95313,34.1953 4.4375,33.1406 4.125,32 Z m 12.75,2 c -0.5156,0 -0.9375,0.4219 -0.9375,0.9375 0,0.5156 0.4219,0.9375 0.9375,0.9375 0.5156,0 0.9375,-0.4219 0.9375,-0.9375 0,-0.125 -0.0156,-0.2031 -0.0625,-0.3125 -0.0625,0.1172 -0.2344,0.1875 -0.375,0.1875 -0.2109,0 -0.3125,-0.2266 -0.3125,-0.4375 0,-0.1406 0.0078,-0.1875 0.125,-0.25 C 17.0859,34.0859 16.9922,34 16.875,34 Z"
       fill="black"
       id="path1918"
       style="fill:#ffffff" />
  </g>
  <defs
     id="defs1925">
    <clipPath
       id="clip0_41_70">
      <rect
         width="48"
         height="48"
         fill="#ffffff"
         id="rect1922"
         x="0"
         y="0" />
    </clipPath>
  </defs>
</svg>
