<?xml version="1.0" encoding="UTF-8" standalone="no"?>
<svg
   width="48"
   height="48"
   viewBox="0 0 48 48"
   fill="none"
   version="1.1"
   id="svg1797"
   xmlns="http://www.w3.org/2000/svg"
   xmlns:svg="http://www.w3.org/2000/svg">
  <g
     clip-path="url(#clip0_45_26)"
     id="g1790"
     style="fill:#ffffff">
    <path
       d="m 21.3049,47.8447 c -0.7137,-0.0851 -1.4621,-0.195 -1.6628,-0.2445 -0.2952,-0.0699 -0.5922,-0.1325 -0.8906,-0.1875 -0.3408,-0.066 -0.6789,-0.1452 -1.0136,-0.2373 -1.5544,-0.4455 -1.6658,-0.4819 -2.8376,-0.9612 -1.0782,-0.4395 -3.0646,-1.4662 -3.7441,-1.9335 -0.1859,-0.129 -0.3599,-0.2328 -0.3866,-0.2328 -0.0262,0 -0.4612,-0.306 -0.96672,-0.6799 C 6.58913,40.9894 4.17637,38.1019 2.433,34.5454 2.133,33.9345 1.88812,33.3926 1.88812,33.3416 1.88812,33.2914 1.83413,33.1522 1.76813,33.0352 1.632,32.7919 1.43813,32.2676 1.28175,31.7257 1.21452,31.4955 1.1363,31.2686 1.04737,31.0459 0.97425,30.8734 0.915375,30.6634 0.915375,30.5786 0.915375,30.4935 0.84225,30.2167 0.753,29.9617 0.66375,29.7086 0.59175,29.4097 0.59175,29.298 0.59175,29.187 0.521625,28.803 0.435,28.4445 0.22425,27.5595 0,25.2671 0,23.9824 c 0,-1.2833 0.22425,-3.5757 0.435,-4.4603 0.08625,-0.3589 0.15675,-0.75 0.15675,-0.87 0,-0.1204 0.054375,-0.3562 0.12,-0.525 0.0675,-0.168 0.15375,-0.4699 0.1935,-0.6705 0.04125,-0.2006 0.135,-0.5464 0.21112,-0.7706 L 1.33763,16.0387 C 1.5,15.5539 1.65075,15.1436 1.72275,14.9839 1.764,14.8946 1.92488,14.5301 2.08162,14.1739 2.33512,13.5982 2.8785,12.5126 3.19613,11.9445 3.312,11.7364 3.35588,11.6674 3.98288,10.6875 4.97625,9.132 6.67387,7.19662 8.25412,5.817 8.811,5.33062 10.6714,3.91837 10.755,3.91837 c 0.0232,0 0.1987,-0.10537 0.3911,-0.23437 0.5051,-0.33825 1.0005,-0.6255 1.6463,-0.94913 0.2318,-0.11464 0.4613,-0.23379 0.6885,-0.35737 0.1069,-0.0615 0.3075,-0.15375 1.3376,-0.615 0.2269,-0.10125 0.4714,-0.1935 1.176,-0.43988 0.1552,-0.054 0.4673,-0.16837 0.69,-0.252 0.2243,-0.083249 0.4879,-0.152249 0.5861,-0.152249 0.0968,0 0.3514,-0.0675 0.5655,-0.15075 0.2138,-0.083625 0.6019,-0.178875 0.864,-0.211125 0.261,-0.03075 0.6079,-0.103875 0.7707,-0.16125 0.1612,-0.0555 0.6037,-0.1275 0.9828,-0.159375 0.4941,-0.044643 0.987,-0.10279 1.4779,-0.1743749 1.008,-0.14775 3.1995,-0.14775 4.197,0 0.4711,0.0676099 0.9439,0.1232529 1.4179,0.1668749 0.3573,0.029625 0.813,0.10425 1.0136,0.16575 0.2006,0.06 0.5479,0.135 0.7706,0.162375 0.2228,0.029625 0.5978,0.121875 0.8333,0.206625 0.2362,0.08625 0.504,0.15525 0.5962,0.15525 0.0923,0 0.2828,0.051375 0.4219,0.115879 0.1406,0.063 0.438,0.16837 0.6622,0.23437 0.2228,0.0675 0.6049,0.20063 0.8513,0.29888 0.2445,0.09787 0.5726,0.22687 0.7294,0.28537 0.2887,0.10875 2.4225,1.17638 2.7127,1.35825 2.3554,1.46888 3.567,2.4285 5.196,4.1115 1.9643,2.03025 3.2681,3.96378 4.5953,6.80998 0.0937,0.201 0.237,0.4984 0.3191,0.6593 0.0806,0.1627 0.1481,0.3532 0.1481,0.4237 0,0.0713 0.0675,0.285 0.1508,0.4759 0.2257,0.5186 0.4189,1.1089 0.51,1.56 0.045,0.2212 0.1286,0.495 0.1856,0.6079 0.0574,0.1125 0.1245,0.3986 0.1511,0.633 0.0263,0.234 0.1039,0.618 0.1699,0.8508 0.3825,1.3242 0.5726,5.2253 0.3413,6.9507 -0.0687,0.5126 -0.1463,1.1325 -0.1725,1.377 -0.0443,0.4188 -0.2656,1.5015 -0.4546,2.2293 l -0.195,0.7707 c -0.3674,1.4838 -1.2757,3.5977 -2.3846,5.5533 -0.4395,0.7763 -1.9129,2.8755 -2.1911,3.1215 -0.0251,0.0218 -0.1496,0.1688 -0.2756,0.3237 -0.126,0.1567 -0.5303,0.5947 -0.8963,0.9727 -1.6129,1.6654 -2.9137,2.6951 -5.1975,4.1134 -0.2707,0.1684 -2.5676,1.2904 -2.997,1.4647 -0.2227,0.0893 -0.5947,0.24 -0.8261,0.3338 -0.2299,0.0926 -0.4864,0.1702 -0.567,0.1717 -0.0806,0.0012 -0.2929,0.0732 -0.4718,0.1594 -0.1785,0.0863 -0.4057,0.1583 -0.5066,0.1598 -0.0997,0.0015 -0.3911,0.072 -0.6476,0.1567 -0.2561,0.0863 -0.6124,0.1789 -0.7913,0.2063 -0.1785,0.0281 -0.5606,0.1042 -0.8508,0.1687 -0.2899,0.0645 -1.1663,0.1905 -1.9451,0.2798 -1.7375,0.2026 -3.4929,0.1987 -5.2294,-0.0117 z m 1.7636,-4.6875 c 0.1125,-0.0877 0.2284,-0.2625 0.2591,-0.3851 0.0675,-0.2711 10.9628,-22.1137 11.1679,-22.3875 0.1729,-0.2314 0.189,-0.6019 0.0307,-0.7324 C 34.443,19.5821 33.3997,19.56 30.615,19.5645 28.5262,19.569 26.7701,19.5705 26.7127,19.569 26.628,19.566 26.6104,18.1702 26.619,12.192 26.625,8.13562 26.6059,4.77975 26.5766,4.73325 26.5474,4.686 26.433,4.64812 26.3216,4.64812 c -0.1567,0 -0.2299,0.0675 -0.3262,0.303 -0.1819,0.438 -0.6844,1.4325 -3.1305,6.18188 -0.5081,0.9856 -1.015,1.9719 -1.5207,2.9587 -0.4335,0.8483 -1.1175,2.1799 -1.5176,2.9588 -1.077,2.0937 -2.1517,4.1886 -3.2242,6.2846 -1.8499,3.6135 -2.0738,4.0444 -2.1533,4.1396 -0.1537,0.186 -0.2373,0.615 -0.1507,0.7763 0.0787,0.1477 0.2359,0.1537 4.1411,0.1477 2.2324,-0.0026 4.0736,0.009 4.0927,0.0263 0.0514,0.0529 0.0323,13.9912 -0.0206,14.3235 -0.0349,0.2182 -0.0116,0.3337 0.0882,0.4335 0.1724,0.1729 0.2197,0.1714 0.4687,-0.0248 z"
       fill="#131515"
       id="path1788"
       style="fill:#ffffff" />
  </g>
  <defs
     id="defs1795">
    <clipPath
       id="clip0_45_26">
      <rect
         width="48"
         height="48"
         fill="#ffffff"
         id="rect1792"
         x="0"
         y="0" />
    </clipPath>
  </defs>
</svg>
