<?xml version="1.0" encoding="UTF-8" standalone="no"?>
<svg
   width="48"
   height="48"
   viewBox="0 0 48 48"
   fill="none"
   version="1.1"
   id="svg1540"
   sodipodi:docname="Git.svg"
   xmlns:inkscape="http://www.inkscape.org/namespaces/inkscape"
   xmlns:sodipodi="http://sodipodi.sourceforge.net/DTD/sodipodi-0.dtd"
   xmlns="http://www.w3.org/2000/svg"
   xmlns:svg="http://www.w3.org/2000/svg">
  <defs
     id="defs1544" />
  <sodipodi:namedview
     id="namedview1542"
     pagecolor="#ffffff"
     bordercolor="#000000"
     borderopacity="0.25"
     inkscape:showpageshadow="2"
     inkscape:pageopacity="0.0"
     inkscape:pagecheckerboard="0"
     inkscape:deskcolor="#d1d1d1"
     showgrid="false" />
  <path
     d="M 40.5859,23.5859 24.4141,7.41406 c -0.7813,-0.78125 -2.0469,-0.78125 -2.8282,0 l -3.3828,3.37504 3.5078,3.5078 C 22.1016,14.1172 22.5391,14 23,14 c 1.6562,0 3,1.3438 3,3 0,0.4609 -0.1172,0.8906 -0.3047,1.2891 l 4.0156,4.0078 C 30.1016,22.1172 30.5391,22 31,22 c 1.6562,0 3,1.3438 3,3 0,1.6562 -1.3438,3 -3,3 -1.6562,0 -3,-1.3438 -3,-3 0,-0.4609 0.1094,-0.8906 0.2969,-1.2891 L 24.2812,19.7031 C 24.1953,19.7422 24.0938,19.7812 24,19.8125 v 10.375 c 1.1562,0.4141 2,1.5078 2,2.8125 0,1.6562 -1.3438,3 -3,3 -1.6562,0 -3,-1.3438 -3,-3 0,-1.3047 0.8359,-2.4062 2,-2.8125 V 19.8125 C 20.8359,19.3984 20,18.3047 20,17 c 0,-0.4609 0.1094,-0.8906 0.2969,-1.2891 l -3.5078,-3.5 -11.37504,11.375 c -0.78125,0.7813 -0.78125,2.0469 0,2.8282 L 21.5859,42.5859 c 0.7813,0.7813 2.0469,0.7813 2.8282,0 L 40.5859,26.4141 c 0.7813,-0.7813 0.7813,-2.0469 0,-2.8282 z"
     fill="black"
     id="path1538"
     style="fill:#ffffff" />
</svg>
