<svg width="48" height="48" viewBox="0 0 48 48" fill="none" xmlns="http://www.w3.org/2000/svg">
<path d="M40.5859 23.5859L24.4141 7.41406C23.6328 6.63281 22.3672 6.63281 21.5859 7.41406L18.2031 10.7891L21.7109 14.2969C22.1016 14.1172 22.5391 14 23 14C24.6562 14 26 15.3438 26 17C26 17.4609 25.8828 17.8906 25.6953 18.2891L29.7109 22.2969C30.1016 22.1172 30.5391 22 31 22C32.6562 22 34 23.3438 34 25C34 26.6562 32.6562 28 31 28C29.3438 28 28 26.6562 28 25C28 24.5391 28.1094 24.1094 28.2969 23.7109L24.2812 19.7031C24.1953 19.7422 24.0938 19.7812 24 19.8125V30.1875C25.1562 30.6016 26 31.6953 26 33C26 34.6562 24.6562 36 23 36C21.3438 36 20 34.6562 20 33C20 31.6953 20.8359 30.5938 22 30.1875V19.8125C20.8359 19.3984 20 18.3047 20 17C20 16.5391 20.1094 16.1094 20.2969 15.7109L16.7891 12.2109L5.41406 23.5859C4.63281 24.3672 4.63281 25.6328 5.41406 26.4141L21.5859 42.5859C22.3672 43.3672 23.6328 43.3672 24.4141 42.5859L40.5859 26.4141C41.3672 25.6328 41.3672 24.3672 40.5859 23.5859Z" fill="black"/>
</svg>
