<svg width="32" height="32" viewBox="0 0 32 32" fill="none" xmlns="http://www.w3.org/2000/svg">
<path d="M14.2039 0.610665C6.82901 1.41009 0.896988 7.32587 0.0953639 14.5207C-0.70626 22.0354 3.62251 28.7506 10.1958 31.3088C10.6768 31.4686 11.1578 31.1489 11.1578 30.5093V27.9512C11.1578 27.9512 10.5165 28.111 9.71485 28.111C7.47031 28.111 6.50836 26.1924 6.34803 25.0732C6.18771 24.4337 5.86706 23.954 5.38608 23.4743C4.90511 23.3145 4.74478 23.3145 4.74478 23.1546C4.74478 22.8348 5.22576 22.8348 5.38608 22.8348C6.34803 22.8348 7.14965 23.954 7.4703 24.4337C8.27193 25.7127 9.23388 26.0325 9.71485 26.0325C10.3562 26.0325 10.8371 25.8726 11.1578 25.7127C11.3181 24.5935 11.7991 23.4743 12.761 22.8348C9.07355 22.0354 6.34803 19.9569 6.34803 16.4394C6.34803 14.6806 7.14965 12.9219 8.27193 11.6428C8.1116 11.323 7.95128 10.5236 7.95128 9.40439C7.95128 8.76485 7.95128 7.80553 8.43225 6.84621C8.43225 6.84621 10.6768 6.84622 12.9213 8.92473C13.723 8.60496 14.8452 8.44507 15.9675 8.44507C17.0898 8.44507 18.2121 8.60496 19.174 8.92473C21.2582 6.84622 23.6631 6.84621 23.6631 6.84621C23.9838 7.80553 23.9838 8.76485 23.9838 9.40439C23.9838 10.6835 23.8234 11.323 23.6631 11.6428C24.7854 12.9219 25.587 14.5207 25.587 16.4394C25.587 19.9569 22.8615 22.0354 19.174 22.8348C20.136 23.6342 20.7773 25.0732 20.7773 26.5122V30.6692C20.7773 31.1489 21.2582 31.6285 21.8995 31.4686C27.8316 29.0704 32 23.3145 32 16.5993C32 7.0061 23.8234 -0.508536 14.2039 0.610665Z" fill="#FF88FF"/>
</svg>
