<svg width="27" height="16" viewBox="0 0 27 16" fill="none" xmlns="http://www.w3.org/2000/svg">
<path d="M4.7 8.80702C5.27778 8.80702 5.77222 8.67251 6.18333 8.40351C6.59444 8.1345 6.8 7.73099 6.8 7.19298C6.8 6.65497 6.59444 6.24561 6.18333 5.96491C5.77222 5.68421 5.27778 5.54386 4.7 5.54386C4.12222 5.54386 3.62778 5.68421 3.21667 5.96491C2.80556 6.24561 2.6 6.65497 2.6 7.19298C2.6 7.73099 2.80556 8.1345 3.21667 8.40351C3.62778 8.67251 4.12222 8.80702 4.7 8.80702ZM0.733333 3.50877C0.533333 3.50877 0.361111 3.43275 0.216667 3.2807C0.0722222 3.12865 0 2.94737 0 2.73684C0 2.52632 0.0722222 2.34503 0.216667 2.19298C0.361111 2.04094 0.533333 1.96491 0.733333 1.96491H3.8V0.912281C3.8 0.654971 3.88333 0.438596 4.05 0.263158C4.21667 0.0877193 4.42222 0 4.66667 0C4.91111 0 5.11667 0.0877193 5.28333 0.263158C5.45 0.438596 5.53333 0.654971 5.53333 0.912281V1.96491H8.63333C8.83333 1.96491 9.00556 2.04094 9.15 2.19298C9.29444 2.34503 9.36667 2.52632 9.36667 2.73684C9.36667 2.94737 9.29444 3.12865 9.15 3.2807C9.00556 3.43275 8.83333 3.50877 8.63333 3.50877H0.733333ZM4.7 10.3509C3.65556 10.3509 2.76111 10.076 2.01667 9.52632C1.27222 8.97661 0.9 8.19883 0.9 7.19298C0.9 6.16374 1.27222 5.38012 2.01667 4.84211C2.76111 4.30409 3.65556 4.03509 4.7 4.03509C5.76667 4.03509 6.67222 4.30409 7.41667 4.84211C8.16111 5.38012 8.53333 6.16374 8.53333 7.19298C8.53333 8.22222 8.16111 9.00585 7.41667 9.54386C6.67222 10.0819 5.76667 10.3509 4.7 10.3509ZM3.6 16C3.22222 16 2.90556 15.8655 2.65 15.5965C2.39444 15.3275 2.26667 14.9942 2.26667 14.5965V12C2.26667 11.7427 2.35556 11.5263 2.53333 11.3509C2.71111 11.1754 2.92222 11.0877 3.16667 11.0877C3.41111 11.0877 3.61667 11.1754 3.78333 11.3509C3.95 11.5263 4.03333 11.7427 4.03333 12V14.4561H12.1C12.3 14.4561 12.4722 14.5322 12.6167 14.6842C12.7611 14.8363 12.8333 15.0175 12.8333 15.2281C12.8333 15.4386 12.7611 15.6199 12.6167 15.7719C12.4722 15.924 12.3 16 12.1 16H3.6ZM11.3 12.3158C11.0556 12.3158 10.85 12.2281 10.6833 12.0526C10.5167 11.8772 10.4333 11.6608 10.4333 11.4035V0.877193C10.4333 0.619883 10.5167 0.409357 10.6833 0.245614C10.85 0.0818714 11.0556 0 11.3 0C11.5444 0 11.7444 0.0818714 11.9 0.245614C12.0556 0.409357 12.1333 0.619883 12.1333 0.877193V5.26316H13.7C13.9 5.26316 14.0722 5.33918 14.2167 5.49123C14.3611 5.64327 14.4333 5.82456 14.4333 6.03509C14.4333 6.24561 14.3611 6.4269 14.2167 6.57895C14.0722 6.73099 13.9 6.80702 13.7 6.80702H12.1667V11.4035C12.1667 11.6608 12.0833 11.8772 11.9167 12.0526C11.75 12.2281 11.5444 12.3158 11.3 12.3158ZM20.9 13.1228C21.5222 13.1228 22.1278 12.9708 22.7167 12.6667C23.3056 12.3626 23.8444 11.9298 24.3333 11.3684V7.64912C23.8222 7.7193 23.35 7.80117 22.9167 7.89474C22.4833 7.9883 22.0778 8.09357 21.7 8.21053C20.7 8.53801 19.95 8.94737 19.45 9.4386C18.95 9.92982 18.7 10.5029 18.7 11.1579C18.7 11.7661 18.9 12.2456 19.3 12.5965C19.7 12.9474 20.2333 13.1228 20.9 13.1228ZM20.1333 15.5088C18.8667 15.5088 17.8667 15.1287 17.1333 14.3684C16.4 13.6082 16.0333 12.5731 16.0333 11.2632C16.0333 10.0468 16.4 9.05263 17.1333 8.2807C17.8667 7.50877 19.0444 6.88889 20.6667 6.42105C21.1778 6.2807 21.7389 6.15205 22.35 6.03509C22.9611 5.91813 23.6222 5.81287 24.3333 5.7193C24.2889 4.61988 24.0444 3.81871 23.6 3.31579C23.1556 2.81287 22.4667 2.5614 21.5333 2.5614C21.0667 2.5614 20.6111 2.63158 20.1667 2.77193C19.7222 2.91228 19.2 3.1462 18.6 3.47368C18.3333 3.63743 18.0556 3.68421 17.7667 3.61403C17.4778 3.54386 17.2556 3.36842 17.1 3.08772C16.9444 2.80702 16.9111 2.50877 17 2.19298C17.0889 1.87719 17.2667 1.63743 17.5333 1.47368C18.2222 1.07602 18.9611 0.754386 19.75 0.508772C20.5389 0.263158 21.3444 0.140351 22.1667 0.140351C23.7444 0.140351 24.9444 0.654971 25.7667 1.68421C26.5889 2.71345 27 4.21053 27 6.17544V14.0351C27 14.3626 26.8944 14.6374 26.6833 14.8596C26.4722 15.0819 26.2111 15.193 25.9 15.193H25.7333C25.4444 15.193 25.2 15.0936 25 14.8947C24.8 14.6959 24.6778 14.4561 24.6333 14.1754L24.5667 13.614C23.9444 14.1988 23.2611 14.6608 22.5167 15C21.7722 15.3392 20.9778 15.5088 20.1333 15.5088Z" fill="#7777FF"/>
</svg>
