<?xml version="1.0" encoding="UTF-8" standalone="no"?>
<svg
   width="48"
   height="48"
   viewBox="0 0 48 48"
   fill="none"
   version="1.1"
   id="svg1415"
   xmlns="http://www.w3.org/2000/svg"
   xmlns:svg="http://www.w3.org/2000/svg">
  <defs
     id="defs1419" />
  <path
     d="M 6.25,2 C 4.438,2 3.00613,2.961 2.32813,4.625 2.11413,5.139 2.00591,5.68409 2.00391,6.24609 c -0.002,1.862 1.19797,3.37335 1.91797,4.27731 0.126,0.158 0.23937,0.2988 0.35937,0.4688 l 0.32422,0.4297 c 0.322,0.422 0.68869,0.9006 0.80469,1.1406 0.038,0.11 0.08825,0.3029 0.15625,0.5469 0.314,1.13 0.90003,3.2301 1.83203,4.8281 0.376,0.644 0.90516,1.4534 1.28516,2.0234 C 8.4296,21.2329 8,23.576 8,25 8,27.5 8.51844,29.5077 9.64844,31.3438 10.0664,31.9998 11.342,34 13.5,34 14.266,34 15.5388,33.7008 15.8828,31.8008 17.4128,33.7748 20,36.25 24,38 c 0,0 -7.4984,-8.7491 -8.8164,-14.2031 0,0 -1.4343,1.4538 -2.6523,4.4219 C 12.1673,27.3027 12,26.27 12,25 c 0,-1.254 0.5516,-4.0573 0.7656,-5.0312 l 0.1875,-0.8477 -0.4922,-0.7149 c -0.008,-0.0139 -1.0154,-1.4684 -1.6054,-2.4804 -0.672,-1.152 -1.16762,-2.9346 -1.43362,-3.8906 -0.13,-0.466 -0.23213,-0.8033 -0.32813,-1.0313 -0.35,-0.758 -0.8625,-1.42371 -1.3125,-2.01171 l -0.25,-0.33203 C 7.40525,8.47816 7.23878,8.26725 7.05078,8.03125 6.68478,7.57125 6.00344,6.71406 6.02344,6.16406 L 6.2461,6.00781 6.25,6 c 1.59,0 3.63816,1.12869 4.4102,1.55469 0.252,0.138 0.4371,0.23334 0.5351,0.27734 l 0.3477,0.15235 0.6836,0.02343 c 0.894,0.02 3.6112,0.08356 5.5312,0.85157 3.502,1.40002 5.4383,2.80132 7.4063,5.35942 4.648,6.044 6.3629,13.8712 6.3789,13.9492 l 0.25,1.1289 1.0937,0.3554 c 0.038,0.014 3.0991,1.037 5.9531,3.711 C 35.2498,34.2513 34,36 34,36 c 0,0 0.952,1.856 5.5,4.75 2.75,1.75 4.25,3 6.5,5.25 0,0 -2.2486,-5.0004 -5.3906,-8.9844 2.392,-0.766 5.332,-1.164 5.332,-1.164 l -1.8203,-2.5235 c -2.996,-4.154 -7.0138,-6.2504 -8.9258,-7.0664 -0.664,-2.532 -2.6694,-9.0325 -6.8594,-14.4805 -2.398,-3.11795 -4.9497,-4.98258 -9.0937,-6.64058 -2.454,-0.98 -5.4048,-1.0969 -6.7188,-1.1289 C 11.3734,3.37972 8.818,2 6.25,2 Z m 8.125,8 c 0,0 -0.875,0 -1.875,0.25 l 2.75,3.7461 C 16,13.0001 16,11.8359 16,11.8359 16,11.8359 15.501,10.5 14.375,10 Z"
     fill="black"
     id="path1413"
     style="fill:#ffffff" />
</svg>
