<svg width="48" height="48" viewBox="0 0 48 48" fill="none" xmlns="http://www.w3.org/2000/svg">
<path d="M6.25 2C4.438 2 3.00613 2.961 2.32813 4.625C2.11413 5.139 2.00591 5.68409 2.00391 6.24609C2.00191 8.10809 3.20188 9.61944 3.92188 10.5234C4.04788 10.6814 4.16125 10.8222 4.28125 10.9922L4.60547 11.4219C4.92747 11.8439 5.29416 12.3225 5.41016 12.5625C5.44816 12.6725 5.49841 12.8654 5.56641 13.1094C5.88041 14.2394 6.46644 16.3395 7.39844 17.9375C7.77444 18.5815 8.3036 19.3909 8.6836 19.9609C8.4296 21.2329 8 23.576 8 25C8 27.5 8.51844 29.5077 9.64844 31.3438C10.0664 31.9998 11.342 34 13.5 34C14.266 34 15.5388 33.7008 15.8828 31.8008C17.4128 33.7748 20 36.25 24 38C24 38 16.5016 29.2509 15.1836 23.7969C15.1836 23.7969 13.7493 25.2507 12.5313 28.2188C12.1673 27.3027 12 26.27 12 25C12 23.746 12.5516 20.9427 12.7656 19.9688L12.9531 19.1211L12.4609 18.4062C12.4529 18.3923 11.4455 16.9378 10.8555 15.9258C10.1835 14.7738 9.68788 12.9912 9.42188 12.0352C9.29188 11.5692 9.18975 11.2319 9.09375 11.0039C8.74375 10.2459 8.23125 9.58019 7.78125 8.99219L7.53125 8.66016C7.40525 8.47816 7.23878 8.26725 7.05078 8.03125C6.68478 7.57125 6.00344 6.71406 6.02344 6.16406L6.2461 6.00781L6.25 6C7.84 6 9.88816 7.12869 10.6602 7.55469C10.9122 7.69269 11.0973 7.78803 11.1953 7.83203L11.543 7.98438L12.2266 8.00781C13.1206 8.02781 15.8378 8.09137 17.7578 8.85938C21.2598 10.2594 23.1961 11.6607 25.1641 14.2188C29.8121 20.2628 31.527 28.09 31.543 28.168L31.793 29.2969L32.8867 29.6523C32.9247 29.6663 35.9858 30.6893 38.8398 33.3633C35.2498 34.2513 34 36 34 36C34 36 34.952 37.856 39.5 40.75C42.25 42.5 43.75 43.75 46 46C46 46 43.7514 40.9996 40.6094 37.0156C43.0014 36.2496 45.9414 35.8516 45.9414 35.8516L44.1211 33.3281C41.1251 29.1741 37.1073 27.0777 35.1953 26.2617C34.5313 23.7297 32.5259 17.2292 28.3359 11.7812C25.9379 8.66325 23.3862 6.79862 19.2422 5.14062C16.7882 4.16062 13.8374 4.04372 12.5234 4.01172C11.3734 3.37972 8.818 2 6.25 2ZM14.375 10C14.375 10 13.5 10 12.5 10.25L15.25 13.9961C16 13.0001 16 11.8359 16 11.8359C16 11.8359 15.501 10.5 14.375 10Z" fill="black"/>
</svg>
