<?xml version="1.0" encoding="UTF-8" standalone="no"?>
<svg
   width="48"
   height="48"
   viewBox="0 0 48 48"
   fill="none"
   version="1.1"
   id="svg1290"
   sodipodi:docname="NextJS.svg"
   xmlns:inkscape="http://www.inkscape.org/namespaces/inkscape"
   xmlns:sodipodi="http://sodipodi.sourceforge.net/DTD/sodipodi-0.dtd"
   xmlns="http://www.w3.org/2000/svg"
   xmlns:svg="http://www.w3.org/2000/svg">
  <defs
     id="defs1294" />
  <sodipodi:namedview
     id="namedview1292"
     pagecolor="#ffffff"
     bordercolor="#000000"
     borderopacity="0.25"
     inkscape:showpageshadow="2"
     inkscape:pageopacity="0.0"
     inkscape:pagecheckerboard="0"
     inkscape:deskcolor="#d1d1d1"
     showgrid="false" />
  <path
     d="m 18.974,31.5 c 0,0.828 -0.671,1.5 -1.5,1.5 -0.829,0 -1.5,-0.672 -1.5,-1.5 v -14 c 0,-0.653 0.423,-1.231 1.045,-1.43 0.625,-0.198 1.302,0.03 1.679,0.563 L 35.475,40.337 C 40.617,36.709 44,30.735 44,24 44,13 35,4 24,4 13,4 4,13 4,24 c 0,11 9,20 20,20 3.192,0 6.206,-0.777 8.89,-2.122 L 18.974,22.216 Z m 10,-15 c 0,-0.828 0.671,-1.5 1.5,-1.5 0.829,0 1.5,0.672 1.5,1.5 v 13.84 l -3,-4.227 z"
     fill="#212121"
     id="path1288"
     style="fill:#ffffff" />
</svg>
