<?xml version="1.0" encoding="UTF-8" standalone="no"?>
<svg
   width="48"
   height="48"
   viewBox="0 0 48 48"
   fill="none"
   version="1.1"
   id="svg1165"
   sodipodi:docname="OpenCV.svg"
   xmlns:inkscape="http://www.inkscape.org/namespaces/inkscape"
   xmlns:sodipodi="http://sodipodi.sourceforge.net/DTD/sodipodi-0.dtd"
   xmlns="http://www.w3.org/2000/svg"
   xmlns:svg="http://www.w3.org/2000/svg">
  <defs
     id="defs1169" />
  <sodipodi:namedview
     id="namedview1167"
     pagecolor="#ffffff"
     bordercolor="#000000"
     borderopacity="0.25"
     inkscape:showpageshadow="2"
     inkscape:pageopacity="0.0"
     inkscape:pagecheckerboard="0"
     inkscape:deskcolor="#d1d1d1"
     showgrid="false" />
  <path
     d="m 42.3266,24.9758 c 3.3765,1.9788 5.6457,5.6351 5.6528,9.8216 0.012,6.3019 -5.1064,11.4199 -11.43,11.43 -6.3236,0.012 -11.4596,-5.0888 -11.4713,-11.3906 -0.0075,-4.1865 2.2485,-7.8499 5.619,-9.8423 l 3.2903,5.5418 c 0.0821,0.1387 0.0352,0.3176 -0.0983,0.4087 -1.245,0.8438 -2.061,2.2673 -2.058,3.8801 0.0045,2.5857 2.1124,4.6789 4.7063,4.6729 2.5946,-0.0045 4.6935,-2.1037 4.689,-4.689 -0.0026,-1.6125 -0.8231,-3.0337 -2.0711,-3.873 -0.1332,-0.0907 -0.1815,-0.2696 -0.0998,-0.4087 z"
     fill="#131515"
     id="path1159"
     style="fill:#ffffff" />
  <path
     d="m 17.0539,24.9083 c -1.7086,-0.9537 -3.6333,-1.453 -5.5901,-1.4502 -6.32512,0 -11.4506164,5.1094 -11.4506164,11.4113 0,6.3015 5.1254964,11.4112 11.4506164,11.4112 6.3548,0 11.6063,-5.3763 11.4465,-11.7045 h -6.4455 c -0.1699,0 -0.303,0.1437 -0.3045,0.312 -0.0161,2.5212 -2.127,4.6628 -4.6965,4.6628 -2.59574,0 -4.69762,-2.0963 -4.69762,-4.6819 0,-2.5852 2.10188,-4.6815 4.69762,-4.6815 0.6784,0 1.3245,0.1436 1.9073,0.4028 0.1436,0.063 0.3135,0.015 0.3926,-0.1185 z"
     fill="#131515"
     id="path1161"
     style="fill:#ffffff" />
  <path
     d="m 17.9794,23.118 c -3.372,-1.9849 -5.6352,-5.6453 -5.6352,-9.8317 0,-6.30192 5.127,-11.4113 11.4507,-11.4113 6.3236,0 11.4506,5.10938 11.4506,11.4113 0,4.1864 -2.2631,7.8468 -5.6351,9.8317 l -3.2817,-5.5455 c -0.0821,-0.1387 -0.0352,-0.3176 0.0998,-0.4088 1.245,-0.8422 2.0636,-2.2646 2.0636,-3.8774 0,-2.5853 -2.1034,-4.68155 -4.6976,-4.68155 -2.5943,0 -4.6976,2.09625 -4.6976,4.68185 0,1.6125 0.8186,3.0349 2.064,3.8775 0.135,0.0908 0.1815,0.2693 0.0993,0.4088 z"
     fill="#131515"
     id="path1163"
     style="fill:#ffffff" />
</svg>
