<svg width="48" height="48" viewBox="0 0 48 48" fill="none" xmlns="http://www.w3.org/2000/svg">
<path d="M42.3266 24.9758C45.7031 26.9546 47.9723 30.6109 47.9794 34.7974C47.9914 41.0993 42.873 46.2173 36.5494 46.2274C30.2258 46.2394 25.0898 41.1386 25.0781 34.8368C25.0706 30.6503 27.3266 26.9869 30.6971 24.9945L33.9874 30.5363C34.0695 30.675 34.0226 30.8539 33.8891 30.945C32.6441 31.7888 31.8281 33.2123 31.8311 34.8251C31.8356 37.4108 33.9435 39.504 36.5374 39.498C39.132 39.4935 41.2309 37.3943 41.2264 34.809C41.2238 33.1965 40.4033 31.7753 39.1553 30.936C39.0221 30.8453 38.9738 30.6664 39.0555 30.5273L42.3266 24.9758Z" fill="#131515"/>
<path d="M17.0539 24.9083C15.3453 23.9546 13.4206 23.4553 11.4638 23.4581C5.13868 23.4581 0.0131836 28.5675 0.0131836 34.8694C0.0131836 41.1709 5.13868 46.2806 11.4638 46.2806C17.8186 46.2806 23.0701 40.9043 22.9103 34.5761H16.4648C16.2949 34.5761 16.1618 34.7198 16.1603 34.8881C16.1442 37.4093 14.0333 39.5509 11.4638 39.5509C8.86806 39.5509 6.76618 37.4546 6.76618 34.869C6.76618 32.2838 8.86806 30.1875 11.4638 30.1875C12.1422 30.1875 12.7883 30.3311 13.3711 30.5903C13.5147 30.6533 13.6846 30.6053 13.7637 30.4718L17.0539 24.9083Z" fill="#131515"/>
<path d="M17.9794 23.118C14.6074 21.1331 12.3442 17.4727 12.3442 13.2863C12.3442 6.98438 17.4712 1.875 23.7949 1.875C30.1185 1.875 35.2455 6.98438 35.2455 13.2863C35.2455 17.4727 32.9824 21.1331 29.6104 23.118L26.3287 17.5725C26.2466 17.4338 26.2935 17.2549 26.4285 17.1637C27.6735 16.3215 28.4921 14.8991 28.4921 13.2863C28.4921 10.701 26.3887 8.60475 23.7945 8.60475C21.2002 8.60475 19.0969 10.701 19.0969 13.2866C19.0969 14.8991 19.9155 16.3215 21.1609 17.1641C21.2959 17.2549 21.3424 17.4334 21.2602 17.5729L17.9794 23.118Z" fill="#131515"/>
</svg>
