<?xml version="1.0" encoding="UTF-8" standalone="no"?>
<svg
   width="48"
   height="48"
   viewBox="0 0 48 48"
   fill="none"
   version="1.1"
   id="svg1036"
   sodipodi:docname="Python.svg"
   xmlns:inkscape="http://www.inkscape.org/namespaces/inkscape"
   xmlns:sodipodi="http://sodipodi.sourceforge.net/DTD/sodipodi-0.dtd"
   xmlns="http://www.w3.org/2000/svg"
   xmlns:svg="http://www.w3.org/2000/svg">
  <defs
     id="defs1040" />
  <sodipodi:namedview
     id="namedview1038"
     pagecolor="#ffffff"
     bordercolor="#000000"
     borderopacity="0.25"
     inkscape:showpageshadow="2"
     inkscape:pageopacity="0.0"
     inkscape:pagecheckerboard="0"
     inkscape:deskcolor="#d1d1d1"
     showgrid="false" />
  <path
     d="m 20,4 c -3.5,0 -6,2.5 -6,6 v 4 h 10 v 2 H 10 c -3.625,0 -6,2.5625 -6,6 v 6 c 0,3.5625 2.375,6 6,6 h 4 v -8 c 0,-2.2031 1.7969,-4 4,-4 h 10 c 2.2031,0 4,-1.7969 4,-4 V 10 C 32,6.5 29.5625,4 26,4 Z m -2,4 c 1.1016,0 2,0.89844 2,2 0,1.1016 -0.8984,2 -2,2 -1.1016,0 -2,-0.8984 -2,-2 0,-1.10156 0.8984,-2 2,-2 z m 16,4 v 8 c 0,2.2031 -1.7969,4 -4,4 H 20 c -2.2031,0 -4,1.7969 -4,4 v 8 c 0,3.5 2.4375,6 6,6 h 6 c 3.5,0 6,-2.5 6,-6 V 32 H 24 v -2 h 14 c 3.625,0 6,-2.5625 6,-6 v -6 c 0,-3.5625 -2.375,-6 -6,-6 z m -4,22 c 1.1016,0 2,0.8984 2,2 0,1.1016 -0.8984,2 -2,2 -1.1016,0 -2,-0.8984 -2,-2 0,-1.1016 0.8984,-2 2,-2 z"
     fill="black"
     id="path1034"
     style="fill:#ffffff" />
</svg>
