<svg width="48" height="48" viewBox="0 0 48 48" fill="none" xmlns="http://www.w3.org/2000/svg">
<path d="M20 4C16.5 4 14 6.5 14 10V14H24V16H10C6.375 16 4 18.5625 4 22V28C4 31.5625 6.375 34 10 34H14V26C14 23.7969 15.7969 22 18 22H28C30.2031 22 32 20.2031 32 18V10C32 6.5 29.5625 4 26 4H20ZM18 8C19.1016 8 20 8.89844 20 10C20 11.1016 19.1016 12 18 12C16.8984 12 16 11.1016 16 10C16 8.89844 16.8984 8 18 8ZM34 12V20C34 22.2031 32.2031 24 30 24H20C17.7969 24 16 25.7969 16 28V36C16 39.5 18.4375 42 22 42H28C31.5 42 34 39.5 34 36V32H24V30H38C41.625 30 44 27.4375 44 24V18C44 14.4375 41.625 12 38 12H34ZM30 34C31.1016 34 32 34.8984 32 36C32 37.1016 31.1016 38 30 38C28.8984 38 28 37.1016 28 36C28 34.8984 28.8984 34 30 34Z" fill="black"/>
</svg>
