<?xml version="1.0" encoding="UTF-8" standalone="no"?>
<svg
   width="48"
   height="48"
   viewBox="0 0 48 48"
   fill="none"
   version="1.1"
   id="svg911"
   sodipodi:docname="PyTorch.svg"
   xmlns:inkscape="http://www.inkscape.org/namespaces/inkscape"
   xmlns:sodipodi="http://sodipodi.sourceforge.net/DTD/sodipodi-0.dtd"
   xmlns="http://www.w3.org/2000/svg"
   xmlns:svg="http://www.w3.org/2000/svg">
  <defs
     id="defs915" />
  <sodipodi:namedview
     id="namedview913"
     pagecolor="#ffffff"
     bordercolor="#000000"
     borderopacity="0.25"
     inkscape:showpageshadow="2"
     inkscape:pageopacity="0.0"
     inkscape:pagecheckerboard="0"
     inkscape:deskcolor="#d1d1d1"
     showgrid="false" />
  <path
     d="m 37.5376,14.3625 -3.45,3.45 c 5.6625,5.6625 5.6625,14.775 0,20.3625 -5.6625,5.6625 -14.775,5.6625 -20.3625,0 -5.6625,-5.6625 -5.6625,-14.775 0,-20.3625 l 9,-9 1.275,-1.275 V 0.75 l -13.575,13.575 c -7.5375,7.5375 -7.5375,19.725 0,27.3 7.5375,7.575 19.725,7.5375 27.15,0 7.5375,-7.575 7.5375,-19.6875 -0.0375,-27.2625 z"
     fill="#131515"
     id="path907"
     style="fill:#ffffff" />
  <path
     d="M 33.2885,11.0601 C 33.3142,9.67272 32.2104,8.52723 30.8231,8.50154 29.4357,8.47584 28.2902,9.57968 28.2645,10.967 c -0.0257,1.3873 1.0782,2.5328 2.4655,2.5585 1.3873,0.0257 2.5328,-1.0781 2.5585,-2.4654 z"
     fill="#131515"
     id="path909"
     style="fill:#ffffff" />
</svg>
