<?xml version="1.0" encoding="UTF-8" standalone="no"?>
<svg
   width="48"
   height="48"
   viewBox="0 0 48 48"
   fill="none"
   version="1.1"
   id="svg256"
   xmlns="http://www.w3.org/2000/svg"
   xmlns:svg="http://www.w3.org/2000/svg">
  <defs
     id="defs260" />
  <path
     d="M 16.0352,2.03127 C 14.5521,1.91818 13.0801,2.17011 11.7891,2.91798 10.0677,3.91515 8.94532,5.62806 8.36719,7.55861 7.78905,9.48916 7.68724,11.6898 7.93359,14.086 c 0.0283,0.2752 0.07555,0.5632 0.11329,0.8437 -0.14083,0.061 -0.29168,0.117 -0.42969,0.1797 C 5.45214,16.0935 3.62642,17.2837 2.26562,18.7461 0.904832,20.2085 0,22.0248 0,24 c 0,1.9752 0.904832,3.7915 2.26562,5.2539 1.3608,1.4624 3.18652,2.6526 5.35157,3.6367 0.13801,0.0628 0.28886,0.1187 0.42969,0.1797 -0.03775,0.2805 -0.08497,0.5685 -0.11329,0.8438 -0.24647,2.3961 -0.14444,4.5967 0.4336,6.5273 0.57803,1.9306 1.69661,3.6434 3.41801,4.6406 1.7213,0.9973 3.7642,1.1151 5.7265,0.6563 1.9624,-0.4588 3.9228,-1.4615 5.8789,-2.8672 0.2019,-0.1451 0.4037,-0.315 0.6055,-0.4687 0.2032,0.1549 0.4061,0.3226 0.6094,0.4687 1.956,1.4058 3.9166,2.4122 5.8789,2.8711 1.9623,0.4589 4.0052,0.337 5.7265,-0.6602 1.7214,-0.9971 2.8438,-2.71 3.4219,-4.6406 0.5781,-1.9305 0.68,-4.1312 0.4336,-6.5273 -0.0284,-0.276 -0.0793,-0.5625 -0.1172,-0.8438 0.142,-0.0615 0.2945,-0.1164 0.4336,-0.1797 2.1651,-0.9841 3.9908,-2.1743 5.3516,-3.6367 C 47.0952,27.7915 48,25.9752 48,24 48,22.0248 47.0952,20.2085 45.7344,18.7461 44.3736,17.2837 42.5479,16.0935 40.3828,15.1094 40.2448,15.0467 40.094,14.9907 39.9531,14.9297 39.9909,14.6492 40.0381,14.3612 40.0664,14.086 40.3129,11.6898 40.2108,9.48919 39.6328,7.55861 39.0548,5.62803 37.9362,3.91524 36.2148,2.91798 34.4935,1.92073 32.4506,1.80293 30.4883,2.26173 28.5259,2.72054 26.5655,3.72326 24.6094,5.12892 24.4067,5.27458 24.2026,5.44323 24,5.59767 23.7979,5.4436 23.5967,5.27424 23.3945,5.12892 21.4385,3.72316 19.4779,2.72064 17.5156,2.26173 17.025,2.14701 16.5295,2.06896 16.0352,2.03127 Z m -1.0508,3.98046 c 0.4604,-0.04318 0.9901,-0.00211 1.6172,0.14454 1.2196,0.28523 2.7275,1.00516 4.3242,2.13281 -1.2559,1.24188 -2.4873,2.63052 -3.6719,4.16792 -1.8912,0.2632 -3.6762,0.6452 -5.3477,1.1172 -0.1923,-1.972 -0.0661,-3.65486 0.2969,-4.86715 0.3695,-1.23386 0.9084,-1.93337 1.5899,-2.32813 0.3407,-0.19738 0.731,-0.324 1.1914,-0.36719 z m 17.2851,0 c 0.8068,-0.07087 1.4264,0.0711 1.9375,0.36719 0.6815,0.3948 1.2243,1.09425 1.5938,2.32813 0.363,1.2123 0.4893,2.89515 0.2969,4.86715 C 34.4251,13.1017 32.6387,12.7204 30.7461,12.457 29.5619,10.9201 28.3335,9.53071 27.0781,8.28908 28.6738,7.16264 30.1795,6.44127 31.3984,6.15627 31.712,6.08296 32.0006,6.03536 32.2695,6.01173 Z M 24,10.9063 c 0.3572,0.3467 0.7131,0.7378 1.0703,1.1172 C 24.7129,12.0161 24.3614,12 24,12 23.6386,12 23.2871,12.0161 22.9297,12.0235 23.2869,11.6442 23.6428,11.2529 24,10.9063 Z M 24,16 c 1.576,0 3.0975,0.0963 4.5703,0.2461 0.8314,1.1647 1.6377,2.4055 2.3985,3.7188 0.7819,1.3499 1.4655,2.6991 2.0742,4.0351 -0.6088,1.336 -1.2922,2.6892 -2.0742,4.0391 -0.7608,1.3132 -1.567,2.5501 -2.3985,3.7148 C 27.0975,31.9038 25.576,32 24,32 22.424,32 20.9025,31.9038 19.4297,31.7539 18.5983,30.5892 17.792,29.3523 17.0312,28.0391 16.2493,26.6891 15.5657,25.3361 14.957,24 c 0.6088,-1.336 1.2922,-2.6891 2.0742,-4.039 0.7608,-1.3132 1.567,-2.5502 2.3985,-3.7149 C 20.9025,16.0963 22.424,16 24,16 Z m -9.9648,1.1914 c -0.1545,0.2565 -0.3135,0.5043 -0.4649,0.7656 -0.1804,0.3114 -0.3434,0.6221 -0.5156,0.9336 -0.1368,-0.4545 -0.2852,-0.9144 -0.3985,-1.3554 0.4356,-0.1276 0.9188,-0.2302 1.379,-0.3438 z m 19.9296,0.0039 c 0.4599,0.1135 0.9437,0.2124 1.379,0.3399 -0.1133,0.441 -0.2617,0.9009 -0.3985,1.3554 C 34.7733,18.5795 34.6098,18.268 34.4297,17.957 34.2785,17.6961 34.119,17.4514 33.9648,17.1953 Z M 24,18 c -3.308,0 -6,2.692 -6,6 0,3.308 2.692,6 6,6 3.308,0 6,-2.692 6,-6 0,-3.308 -2.692,-6 -6,-6 z M 8.86719,18.9492 C 9.30697,20.5899 9.87342,22.2769 10.582,23.9961 9.87233,25.7168 9.30372,27.4048 8.86328,29.0469 7.25302,28.2677 5.98851,27.3879 5.19141,26.5313 4.32568,25.6009 4,24.7862 4,24 4,23.2138 4.32568,22.3991 5.19141,21.4688 5.9893,20.6113 7.2546,19.729 8.86719,18.9492 Z m 30.26951,0.0039 c 1.6103,0.7792 2.8748,1.659 3.6719,2.5157 C 43.6743,22.3991 44,23.2138 44,24 c 0,0.7862 -0.3257,1.6009 -1.1914,2.5313 -0.7976,0.8572 -2.064,1.7361 -3.6758,2.5156 -0.44,-1.6403 -1.0062,-3.3282 -1.7148,-5.0469 0.7091,-1.7196 1.2786,-3.4058 1.7187,-5.0469 z m -26.082,10.1563 c 0.1722,0.3116 0.3352,0.6222 0.5156,0.9336 0.1509,0.2604 0.311,0.5062 0.4649,0.7617 -0.4599,-0.1135 -0.9437,-0.2124 -1.379,-0.3398 0.1133,-0.4411 0.2616,-0.9009 0.3985,-1.3555 z m 21.8906,0 c 0.1367,0.4541 0.2853,0.9148 0.3985,1.3555 -0.4356,0.1275 -0.9188,0.2301 -1.379,0.3437 0.1545,-0.2565 0.3135,-0.5043 0.4649,-0.7656 0.1804,-0.3114 0.3434,-0.622 0.5156,-0.9336 z m -23.043,5.3164 c 1.6726,0.4725 3.459,0.8539 5.3516,1.1172 1.1839,1.5367 2.4128,2.9265 3.668,4.168 -1.5957,1.1264 -3.1014,1.8478 -4.3203,2.1328 -1.2542,0.2932 -2.1272,0.1721 -2.8086,-0.2227 -0.6815,-0.3948 -1.2243,-1.0942 -1.5938,-2.3281 -0.363,-1.2123 -0.4893,-2.8952 -0.2969,-4.8672 z m 24.1954,0 c 0.1923,1.9721 0.0661,3.6588 -0.2969,4.8711 -0.3695,1.2339 -0.9123,1.9295 -1.5938,2.3242 -0.6814,0.3948 -1.5544,0.516 -2.8086,0.2227 -1.2197,-0.2853 -2.7275,-1.0051 -4.3242,-2.1328 1.2559,-1.2419 2.4873,-2.6306 3.6719,-4.168 1.8926,-0.2633 3.679,-0.6447 5.3516,-1.1172 z m -13.168,1.5508 C 23.2871,35.984 23.6386,36 24,36 c 0.3614,0 0.7129,-0.016 1.0703,-0.0234 -0.3572,0.3793 -0.7131,0.7705 -1.0703,1.1172 -0.3572,-0.3467 -0.7131,-0.7379 -1.0703,-1.1172 z"
     fill="#131515"
     id="path254"
     style="fill:#ffffff" />
</svg>
