<svg width="48" height="48" viewBox="0 0 48 48" fill="none" xmlns="http://www.w3.org/2000/svg">
<path d="M16.0352 2.03127C14.5521 1.91818 13.0801 2.17011 11.7891 2.91798C10.0677 3.91515 8.94532 5.62806 8.36719 7.55861C7.78905 9.48916 7.68724 11.6898 7.93359 14.086C7.96189 14.3612 8.00914 14.6492 8.04688 14.9297C7.90605 14.9907 7.7552 15.0467 7.61719 15.1094C5.45214 16.0935 3.62642 17.2837 2.26562 18.7461C0.904832 20.2085 0 22.0248 0 24C0 25.9752 0.904832 27.7915 2.26562 29.2539C3.62642 30.7163 5.45214 31.9065 7.61719 32.8906C7.7552 32.9534 7.90605 33.0093 8.04688 33.0703C8.00913 33.3508 7.96191 33.6388 7.93359 33.9141C7.68712 36.3102 7.78915 38.5108 8.36719 40.4414C8.94522 42.372 10.0638 44.0848 11.7852 45.082C13.5065 46.0793 15.5494 46.1971 17.5117 45.7383C19.4741 45.2795 21.4345 44.2768 23.3906 42.8711C23.5925 42.726 23.7943 42.5561 23.9961 42.4024C24.1993 42.5573 24.4022 42.725 24.6055 42.8711C26.5615 44.2769 28.5221 45.2833 30.4844 45.7422C32.4467 46.2011 34.4896 46.0792 36.2109 45.082C37.9323 44.0849 39.0547 42.372 39.6328 40.4414C40.2109 38.5109 40.3128 36.3102 40.0664 33.9141C40.038 33.6381 39.9871 33.3516 39.9492 33.0703C40.0912 33.0088 40.2437 32.9539 40.3828 32.8906C42.5479 31.9065 44.3736 30.7163 45.7344 29.2539C47.0952 27.7915 48 25.9752 48 24C48 22.0248 47.0952 20.2085 45.7344 18.7461C44.3736 17.2837 42.5479 16.0935 40.3828 15.1094C40.2448 15.0467 40.094 14.9907 39.9531 14.9297C39.9909 14.6492 40.0381 14.3612 40.0664 14.086C40.3129 11.6898 40.2108 9.48919 39.6328 7.55861C39.0548 5.62803 37.9362 3.91524 36.2148 2.91798C34.4935 1.92073 32.4506 1.80293 30.4883 2.26173C28.5259 2.72054 26.5655 3.72326 24.6094 5.12892C24.4067 5.27458 24.2026 5.44323 24 5.59767C23.7979 5.4436 23.5967 5.27424 23.3945 5.12892C21.4385 3.72316 19.4779 2.72064 17.5156 2.26173C17.025 2.14701 16.5295 2.06896 16.0352 2.03127ZM14.9844 6.01173C15.4448 5.96855 15.9745 6.00962 16.6016 6.15627C17.8212 6.4415 19.3291 7.16143 20.9258 8.28908C19.6699 9.53096 18.4385 10.9196 17.2539 12.457C15.3627 12.7202 13.5777 13.1022 11.9062 13.5742C11.7139 11.6022 11.8401 9.91934 12.2031 8.70705C12.5726 7.47319 13.1115 6.77368 13.793 6.37892C14.1337 6.18154 14.524 6.05492 14.9844 6.01173ZM32.2695 6.01173C33.0763 5.94086 33.6959 6.08283 34.207 6.37892C34.8885 6.77372 35.4313 7.47317 35.8008 8.70705C36.1638 9.91935 36.2901 11.6022 36.0977 13.5742C34.4251 13.1017 32.6387 12.7204 30.7461 12.457C29.5619 10.9201 28.3335 9.53071 27.0781 8.28908C28.6738 7.16264 30.1795 6.44127 31.3984 6.15627C31.712 6.08296 32.0006 6.03536 32.2695 6.01173ZM24 10.9063C24.3572 11.253 24.7131 11.6441 25.0703 12.0235C24.7129 12.0161 24.3614 12 24 12C23.6386 12 23.2871 12.0161 22.9297 12.0235C23.2869 11.6442 23.6428 11.2529 24 10.9063ZM24 16C25.576 16 27.0975 16.0963 28.5703 16.2461C29.4017 17.4108 30.208 18.6516 30.9688 19.9649C31.7507 21.3148 32.4343 22.664 33.043 24C32.4342 25.336 31.7508 26.6892 30.9688 28.0391C30.208 29.3523 29.4018 30.5892 28.5703 31.7539C27.0975 31.9038 25.576 32 24 32C22.424 32 20.9025 31.9038 19.4297 31.7539C18.5983 30.5892 17.792 29.3523 17.0312 28.0391C16.2493 26.6891 15.5657 25.3361 14.957 24C15.5658 22.664 16.2492 21.3109 17.0312 19.961C17.792 18.6478 18.5982 17.4108 19.4297 16.2461C20.9025 16.0963 22.424 16 24 16ZM14.0352 17.1914C13.8807 17.4479 13.7217 17.6957 13.5703 17.957C13.3899 18.2684 13.2269 18.5791 13.0547 18.8906C12.9179 18.4361 12.7695 17.9762 12.6562 17.5352C13.0918 17.4076 13.575 17.305 14.0352 17.1914ZM33.9648 17.1953C34.4247 17.3088 34.9085 17.4077 35.3438 17.5352C35.2305 17.9762 35.0821 18.4361 34.9453 18.8906C34.7733 18.5795 34.6098 18.268 34.4297 17.957C34.2785 17.6961 34.119 17.4514 33.9648 17.1953ZM24 18C20.692 18 18 20.692 18 24C18 27.308 20.692 30 24 30C27.308 30 30 27.308 30 24C30 20.692 27.308 18 24 18ZM8.86719 18.9492C9.30697 20.5899 9.87342 22.2769 10.582 23.9961C9.87233 25.7168 9.30372 27.4048 8.86328 29.0469C7.25302 28.2677 5.98851 27.3879 5.19141 26.5313C4.32568 25.6009 4 24.7862 4 24C4 23.2138 4.32568 22.3991 5.19141 21.4688C5.9893 20.6113 7.2546 19.729 8.86719 18.9492ZM39.1367 18.9531C40.747 19.7323 42.0115 20.6121 42.8086 21.4688C43.6743 22.3991 44 23.2138 44 24C44 24.7862 43.6743 25.6009 42.8086 26.5313C42.011 27.3885 40.7446 28.2674 39.1328 29.0469C38.6928 27.4066 38.1266 25.7187 37.418 24C38.1271 22.2804 38.6966 20.5942 39.1367 18.9531ZM13.0547 29.1094C13.2269 29.421 13.3899 29.7316 13.5703 30.043C13.7212 30.3034 13.8813 30.5492 14.0352 30.8047C13.5753 30.6912 13.0915 30.5923 12.6562 30.4649C12.7695 30.0238 12.9178 29.564 13.0547 29.1094ZM34.9453 29.1094C35.082 29.5635 35.2306 30.0242 35.3438 30.4649C34.9082 30.5924 34.425 30.695 33.9648 30.8086C34.1193 30.5521 34.2783 30.3043 34.4297 30.043C34.6101 29.7316 34.7731 29.421 34.9453 29.1094ZM11.9023 34.4258C13.5749 34.8983 15.3613 35.2797 17.2539 35.543C18.4378 37.0797 19.6667 38.4695 20.9219 39.711C19.3262 40.8374 17.8205 41.5588 16.6016 41.8438C15.3474 42.137 14.4744 42.0159 13.793 41.6211C13.1115 41.2263 12.5687 40.5269 12.1992 39.293C11.8362 38.0807 11.7099 36.3978 11.9023 34.4258ZM36.0977 34.4258C36.29 36.3979 36.1638 38.0846 35.8008 39.2969C35.4313 40.5308 34.8885 41.2264 34.207 41.6211C33.5256 42.0159 32.6526 42.1371 31.3984 41.8438C30.1787 41.5585 28.6709 40.8387 27.0742 39.711C28.3301 38.4691 29.5615 37.0804 30.7461 35.543C32.6387 35.2797 34.4251 34.8983 36.0977 34.4258ZM22.9297 35.9766C23.2871 35.984 23.6386 36 24 36C24.3614 36 24.7129 35.984 25.0703 35.9766C24.7131 36.3559 24.3572 36.7471 24 37.0938C23.6428 36.7471 23.2869 36.3559 22.9297 35.9766Z" fill="#131515"/>
</svg>
