<?xml version="1.0" encoding="UTF-8" standalone="no"?>
<svg
   width="48"
   height="48"
   viewBox="0 0 48 48"
   fill="none"
   version="1.1"
   id="svg534"
   xmlns="http://www.w3.org/2000/svg"
   xmlns:svg="http://www.w3.org/2000/svg">
  <g
     clip-path="url(#clip0_118_2)"
     id="g527"
     style="fill:#ffffff">
    <path
       d="M 24,21.3333 C 17.3333,21.3333 11.6667,20.2889 7,18.2 2.33333,16.1111 0,13.6 0,10.6667 0,7.73333 2.33333,5.22222 7,3.13333 11.6667,1.04444 17.3333,0 24,0 c 6.6667,0 12.3333,1.04444 17,3.13333 4.6667,2.08889 7,4.6 7,7.53337 0,2.9333 -2.3333,5.4444 -7,7.5333 -4.6667,2.0889 -10.3333,3.1333 -17,3.1333 z m 0,13.3334 c -6.6667,0 -12.3333,-1.0445 -17,-3.1334 C 2.33333,29.4444 0,26.9333 0,24 v -6.6667 c 0,1.9556 0.911111,3.6116 2.73333,4.968 1.82223,1.3547 4,2.4543 6.53334,3.2987 C 11.8,26.4444 14.4338,27.0551 17.168,27.432 19.9004,27.8107 22.1778,28 24,28 c 1.8222,0 4.0996,-0.1893 6.832,-0.568 2.7342,-0.3769 5.368,-0.9876 7.9013,-1.832 2.5334,-0.8444 4.7111,-1.944 6.5334,-3.2987 C 47.0889,20.9449 48,19.2889 48,17.3333 V 24 c 0,2.9333 -2.3333,5.4444 -7,7.5333 -4.6667,2.0889 -10.3333,3.1334 -17,3.1334 z M 24,48 C 17.3333,48 11.6667,46.9556 7,44.8667 2.33333,42.7778 0,40.2667 0,37.3333 v -6.6666 c 0,1.9555 0.911111,3.6115 2.73333,4.968 1.82223,1.3546 4,2.4542 6.53334,3.2986 2.53333,0.8445 5.16713,1.456 7.90133,1.8347 2.7324,0.3769 5.0098,0.5653 6.832,0.5653 1.8222,0 4.0996,-0.1884 6.832,-0.5653 2.7342,-0.3787 5.368,-0.9902 7.9013,-1.8347 2.5334,-0.8444 4.7111,-1.944 6.5334,-3.2986 C 47.0889,34.2782 48,32.6222 48,30.6667 v 6.6666 c 0,2.9334 -2.3333,5.4445 -7,7.5334 C 36.3333,46.9556 30.6667,48 24,48 Z"
       fill="black"
       id="path525"
       style="fill:#ffffff" />
  </g>
  <defs
     id="defs532">
    <clipPath
       id="clip0_118_2">
      <rect
         width="48"
         height="48"
         fill="#ffffff"
         id="rect529"
         x="0"
         y="0" />
    </clipPath>
  </defs>
</svg>
