<svg width="48" height="48" viewBox="0 0 48 48" fill="none" xmlns="http://www.w3.org/2000/svg">
<g clip-path="url(#clip0_118_2)">
<path d="M24 21.3333C17.3333 21.3333 11.6667 20.2889 7 18.2C2.33333 16.1111 0 13.6 0 10.6667C0 7.73333 2.33333 5.22222 7 3.13333C11.6667 1.04444 17.3333 0 24 0C30.6667 0 36.3333 1.04444 41 3.13333C45.6667 5.22222 48 7.73333 48 10.6667C48 13.6 45.6667 16.1111 41 18.2C36.3333 20.2889 30.6667 21.3333 24 21.3333ZM24 34.6667C17.3333 34.6667 11.6667 33.6222 7 31.5333C2.33333 29.4444 0 26.9333 0 24V17.3333C0 19.2889 0.911111 20.9449 2.73333 22.3013C4.55556 23.656 6.73333 24.7556 9.26667 25.6C11.8 26.4444 14.4338 27.0551 17.168 27.432C19.9004 27.8107 22.1778 28 24 28C25.8222 28 28.0996 27.8107 30.832 27.432C33.5662 27.0551 36.2 26.4444 38.7333 25.6C41.2667 24.7556 43.4444 23.656 45.2667 22.3013C47.0889 20.9449 48 19.2889 48 17.3333V24C48 26.9333 45.6667 29.4444 41 31.5333C36.3333 33.6222 30.6667 34.6667 24 34.6667ZM24 48C17.3333 48 11.6667 46.9556 7 44.8667C2.33333 42.7778 0 40.2667 0 37.3333V30.6667C0 32.6222 0.911111 34.2782 2.73333 35.6347C4.55556 36.9893 6.73333 38.0889 9.26667 38.9333C11.8 39.7778 14.4338 40.3893 17.168 40.768C19.9004 41.1449 22.1778 41.3333 24 41.3333C25.8222 41.3333 28.0996 41.1449 30.832 40.768C33.5662 40.3893 36.2 39.7778 38.7333 38.9333C41.2667 38.0889 43.4444 36.9893 45.2667 35.6347C47.0889 34.2782 48 32.6222 48 30.6667V37.3333C48 40.2667 45.6667 42.7778 41 44.8667C36.3333 46.9556 30.6667 48 24 48Z" fill="black"/>
</g>
<defs>
<clipPath id="clip0_118_2">
<rect width="48" height="48" fill="white"/>
</clipPath>
</defs>
</svg>
