<?xml version="1.0" encoding="UTF-8" standalone="no"?>
<svg
   width="48"
   height="48"
   viewBox="0 0 48 48"
   fill="none"
   version="1.1"
   id="svg404"
   xmlns="http://www.w3.org/2000/svg"
   xmlns:svg="http://www.w3.org/2000/svg">
  <g
     clip-path="url(#clip0_101_345)"
     id="g397"
     style="fill:#ffffff">
    <path
       d="M 7.60714,18.8571 C 7.60714,18.383 7.22411,18 6.75,18 6.27589,18 5.89286,18.383 5.89286,18.8571 v 4.2858 H 1.60714 C 1.13304,23.1429 0.75,23.5259 0.75,24 c 0,0.4741 0.38304,0.8571 0.85714,0.8571 h 4.28572 v 4.2858 C 5.89286,29.617 6.27589,30 6.75,30 7.22411,30 7.60714,29.617 7.60714,29.1429 v -4.2858 h 4.28576 c 0.4741,0 0.8571,-0.383 0.8571,-0.8571 0,-0.4741 -0.383,-0.8571 -0.8571,-0.8571 H 7.60714 Z"
       fill="black"
       id="path379"
       style="fill:#ffffff" />
    <path
       d="M 24.8571,1.60714 C 24.8571,1.13304 24.4741,0.75 24,0.75 c -0.4741,0 -0.8571,0.38304 -0.8571,0.85714 V 5.89286 H 18.8571 C 18.383,5.89286 18,6.27589 18,6.75 c 0,0.47411 0.383,0.85714 0.8571,0.85714 h 4.2858 v 4.28576 c 0,0.4741 0.383,0.8571 0.8571,0.8571 0.4741,0 0.8571,-0.383 0.8571,-0.8571 V 7.60714 h 4.2858 C 29.617,7.60714 30,7.22411 30,6.75 30,6.27589 29.617,5.89286 29.1429,5.89286 h -4.2858 z"
       fill="black"
       id="path381"
       style="fill:#ffffff" />
    <path
       d="M 24.8571,36.1071 C 24.8571,35.633 24.4741,35.25 24,35.25 c -0.4741,0 -0.8571,0.383 -0.8571,0.8571 v 4.2858 H 18.8571 C 18.383,40.3929 18,40.7759 18,41.25 c 0,0.4741 0.383,0.8571 0.8571,0.8571 h 4.2858 v 4.2858 c 0,0.4741 0.383,0.8571 0.8571,0.8571 0.4741,0 0.8571,-0.383 0.8571,-0.8571 v -4.2858 h 4.2858 C 29.617,42.1071 30,41.7241 30,41.25 30,40.7759 29.617,40.3929 29.1429,40.3929 h -4.2858 z"
       fill="black"
       id="path383"
       style="fill:#ffffff" />
    <path
       d="M 36.5357,32.0357 C 36.5357,31.7394 36.2963,31.5 36,31.5 c -0.2963,0 -0.5357,0.2394 -0.5357,0.5357 v 2.6786 h -2.6786 c -0.2963,0 -0.5357,0.2394 -0.5357,0.5357 0,0.2963 0.2394,0.5357 0.5357,0.5357 h 2.6786 v 2.6786 C 35.4643,38.7606 35.7037,39 36,39 c 0.2963,0 0.5357,-0.2394 0.5357,-0.5357 v -2.6786 h 2.6786 c 0.2963,0 0.5357,-0.2394 0.5357,-0.5357 0,-0.2963 -0.2394,-0.5357 -0.5357,-0.5357 h -2.6786 z"
       fill="black"
       id="path385"
       style="fill:#ffffff" />
    <path
       d="M 36.5357,9.53571 C 36.5357,9.2394 36.2963,9 36,9 35.7037,9 35.4643,9.2394 35.4643,9.53571 v 2.67859 h -2.6786 c -0.2963,0 -0.5357,0.2394 -0.5357,0.5357 0,0.2963 0.2394,0.5357 0.5357,0.5357 h 2.6786 v 2.6786 c 0,0.2963 0.2394,0.5357 0.5357,0.5357 0.2963,0 0.5357,-0.2394 0.5357,-0.5357 v -2.6786 h 2.6786 c 0.2963,0 0.5357,-0.2394 0.5357,-0.5357 0,-0.2963 -0.2394,-0.5357 -0.5357,-0.5357 h -2.6786 z"
       fill="black"
       id="path387"
       style="fill:#ffffff" />
    <path
       d="M 12.5357,32.0357 C 12.5357,31.7394 12.2963,31.5 12,31.5 c -0.2963,0 -0.5357,0.2394 -0.5357,0.5357 v 2.6786 H 8.78571 C 8.4894,34.7143 8.25,34.9537 8.25,35.25 c 0,0.2963 0.2394,0.5357 0.53571,0.5357 h 2.67859 v 2.6786 C 11.4643,38.7606 11.7037,39 12,39 c 0.2963,0 0.5357,-0.2394 0.5357,-0.5357 v -2.6786 h 2.6786 c 0.2963,0 0.5357,-0.2394 0.5357,-0.5357 0,-0.2963 -0.2394,-0.5357 -0.5357,-0.5357 h -2.6786 z"
       fill="black"
       id="path389"
       style="fill:#ffffff" />
    <path
       d="M 12.5357,9.53571 C 12.5357,9.2394 12.2963,9 12,9 11.7037,9 11.4643,9.2394 11.4643,9.53571 V 12.2143 H 8.78571 C 8.4894,12.2143 8.25,12.4537 8.25,12.75 c 0,0.2963 0.2394,0.5357 0.53571,0.5357 h 2.67859 v 2.6786 c 0,0.2963 0.2394,0.5357 0.5357,0.5357 0.2963,0 0.5357,-0.2394 0.5357,-0.5357 v -2.6786 h 2.6786 c 0.2963,0 0.5357,-0.2394 0.5357,-0.5357 0,-0.2963 -0.2394,-0.5357 -0.5357,-0.5357 h -2.6786 z"
       fill="black"
       id="path391"
       style="fill:#ffffff" />
    <path
       d="M 42.8571,18.8571 C 42.8571,18.383 42.4741,18 42,18 c -0.4741,0 -0.8571,0.383 -0.8571,0.8571 v 4.2858 H 36.8571 C 36.383,23.1429 36,23.5259 36,24 c 0,0.4741 0.383,0.8571 0.8571,0.8571 h 4.2858 v 4.2858 C 41.1429,29.617 41.5259,30 42,30 c 0.4741,0 0.8571,-0.383 0.8571,-0.8571 v -4.2858 h 4.2858 C 47.617,24.8571 48,24.4741 48,24 48,23.5259 47.617,23.1429 47.1429,23.1429 h -4.2858 z"
       fill="black"
       id="path393"
       style="fill:#ffffff" />
    <path
       d="M 25.2857,16.2857 C 25.2857,15.5746 24.7112,15 24,15 c -0.7112,0 -1.2857,0.5746 -1.2857,1.2857 v 6.4286 H 16.2857 C 15.5746,22.7143 15,23.2888 15,24 c 0,0.7112 0.5746,1.2857 1.2857,1.2857 h 6.4286 v 6.4286 C 22.7143,32.4254 23.2888,33 24,33 c 0.7112,0 1.2857,-0.5746 1.2857,-1.2857 v -6.4286 h 6.4286 C 32.4254,25.2857 33,24.7112 33,24 33,23.2888 32.4254,22.7143 31.7143,22.7143 h -6.4286 z"
       fill="black"
       id="path395"
       style="fill:#ffffff" />
  </g>
  <defs
     id="defs402">
    <clipPath
       id="clip0_101_345">
      <rect
         width="48"
         height="48"
         fill="#ffffff"
         id="rect399"
         x="0"
         y="0" />
    </clipPath>
  </defs>
</svg>
