<svg width="48" height="48" viewBox="0 0 48 48" fill="none" xmlns="http://www.w3.org/2000/svg">
<g clip-path="url(#clip0_101_345)">
<path d="M7.60714 18.8571C7.60714 18.383 7.22411 18 6.75 18C6.27589 18 5.89286 18.383 5.89286 18.8571V23.1429H1.60714C1.13304 23.1429 0.75 23.5259 0.75 24C0.75 24.4741 1.13304 24.8571 1.60714 24.8571H5.89286V29.1429C5.89286 29.617 6.27589 30 6.75 30C7.22411 30 7.60714 29.617 7.60714 29.1429V24.8571H11.8929C12.367 24.8571 12.75 24.4741 12.75 24C12.75 23.5259 12.367 23.1429 11.8929 23.1429H7.60714V18.8571Z" fill="black"/>
<path d="M24.8571 1.60714C24.8571 1.13304 24.4741 0.75 24 0.75C23.5259 0.75 23.1429 1.13304 23.1429 1.60714V5.89286H18.8571C18.383 5.89286 18 6.27589 18 6.75C18 7.22411 18.383 7.60714 18.8571 7.60714H23.1429V11.8929C23.1429 12.367 23.5259 12.75 24 12.75C24.4741 12.75 24.8571 12.367 24.8571 11.8929V7.60714H29.1429C29.617 7.60714 30 7.22411 30 6.75C30 6.27589 29.617 5.89286 29.1429 5.89286H24.8571V1.60714Z" fill="black"/>
<path d="M24.8571 36.1071C24.8571 35.633 24.4741 35.25 24 35.25C23.5259 35.25 23.1429 35.633 23.1429 36.1071V40.3929H18.8571C18.383 40.3929 18 40.7759 18 41.25C18 41.7241 18.383 42.1071 18.8571 42.1071H23.1429V46.3929C23.1429 46.867 23.5259 47.25 24 47.25C24.4741 47.25 24.8571 46.867 24.8571 46.3929V42.1071H29.1429C29.617 42.1071 30 41.7241 30 41.25C30 40.7759 29.617 40.3929 29.1429 40.3929H24.8571V36.1071Z" fill="black"/>
<path d="M36.5357 32.0357C36.5357 31.7394 36.2963 31.5 36 31.5C35.7037 31.5 35.4643 31.7394 35.4643 32.0357V34.7143H32.7857C32.4894 34.7143 32.25 34.9537 32.25 35.25C32.25 35.5463 32.4894 35.7857 32.7857 35.7857H35.4643V38.4643C35.4643 38.7606 35.7037 39 36 39C36.2963 39 36.5357 38.7606 36.5357 38.4643V35.7857H39.2143C39.5106 35.7857 39.75 35.5463 39.75 35.25C39.75 34.9537 39.5106 34.7143 39.2143 34.7143H36.5357V32.0357Z" fill="black"/>
<path d="M36.5357 9.53571C36.5357 9.2394 36.2963 9 36 9C35.7037 9 35.4643 9.2394 35.4643 9.53571V12.2143H32.7857C32.4894 12.2143 32.25 12.4537 32.25 12.75C32.25 13.0463 32.4894 13.2857 32.7857 13.2857H35.4643V15.9643C35.4643 16.2606 35.7037 16.5 36 16.5C36.2963 16.5 36.5357 16.2606 36.5357 15.9643V13.2857H39.2143C39.5106 13.2857 39.75 13.0463 39.75 12.75C39.75 12.4537 39.5106 12.2143 39.2143 12.2143H36.5357V9.53571Z" fill="black"/>
<path d="M12.5357 32.0357C12.5357 31.7394 12.2963 31.5 12 31.5C11.7037 31.5 11.4643 31.7394 11.4643 32.0357V34.7143H8.78571C8.4894 34.7143 8.25 34.9537 8.25 35.25C8.25 35.5463 8.4894 35.7857 8.78571 35.7857H11.4643V38.4643C11.4643 38.7606 11.7037 39 12 39C12.2963 39 12.5357 38.7606 12.5357 38.4643V35.7857H15.2143C15.5106 35.7857 15.75 35.5463 15.75 35.25C15.75 34.9537 15.5106 34.7143 15.2143 34.7143H12.5357V32.0357Z" fill="black"/>
<path d="M12.5357 9.53571C12.5357 9.2394 12.2963 9 12 9C11.7037 9 11.4643 9.2394 11.4643 9.53571V12.2143H8.78571C8.4894 12.2143 8.25 12.4537 8.25 12.75C8.25 13.0463 8.4894 13.2857 8.78571 13.2857H11.4643V15.9643C11.4643 16.2606 11.7037 16.5 12 16.5C12.2963 16.5 12.5357 16.2606 12.5357 15.9643V13.2857H15.2143C15.5106 13.2857 15.75 13.0463 15.75 12.75C15.75 12.4537 15.5106 12.2143 15.2143 12.2143H12.5357V9.53571Z" fill="black"/>
<path d="M42.8571 18.8571C42.8571 18.383 42.4741 18 42 18C41.5259 18 41.1429 18.383 41.1429 18.8571V23.1429H36.8571C36.383 23.1429 36 23.5259 36 24C36 24.4741 36.383 24.8571 36.8571 24.8571H41.1429V29.1429C41.1429 29.617 41.5259 30 42 30C42.4741 30 42.8571 29.617 42.8571 29.1429V24.8571H47.1429C47.617 24.8571 48 24.4741 48 24C48 23.5259 47.617 23.1429 47.1429 23.1429H42.8571V18.8571Z" fill="black"/>
<path d="M25.2857 16.2857C25.2857 15.5746 24.7112 15 24 15C23.2888 15 22.7143 15.5746 22.7143 16.2857V22.7143H16.2857C15.5746 22.7143 15 23.2888 15 24C15 24.7112 15.5746 25.2857 16.2857 25.2857H22.7143V31.7143C22.7143 32.4254 23.2888 33 24 33C24.7112 33 25.2857 32.4254 25.2857 31.7143V25.2857H31.7143C32.4254 25.2857 33 24.7112 33 24C33 23.2888 32.4254 22.7143 31.7143 22.7143H25.2857V16.2857Z" fill="black"/>
</g>
<defs>
<clipPath id="clip0_101_345">
<rect width="48" height="48" fill="white"/>
</clipPath>
</defs>
</svg>
