<?xml version="1.0" encoding="UTF-8" standalone="no"?>
<svg
   width="48"
   height="48"
   viewBox="0 0 48 48"
   fill="none"
   version="1.1"
   id="svg256"
   xmlns="http://www.w3.org/2000/svg"
   xmlns:svg="http://www.w3.org/2000/svg">
  <defs
     id="defs260" />
  <path
     d="m 44.21,15.106 c -0.448,0.896 -1.046,1.446 -1.828,1.676 -1.228,0.366 -2.686,-0.104 -3.37,-0.506 C 38.11,15.746 37.064,14.942 35.958,14.092 32.428,11.376 28.036,8 22,8 17.172,8 14.692,10.478 10.586,14.586 l 2.814,2.842 c 1.092,-0.85 8.062,-0.03 11.104,2.388 C 29.022,23.406 32.284,26 36,26 c 5.318,0 9.758,-3.482 11.88,-9.316 z M 32.384,30.782 c -1.226,0.36 -2.686,-0.104 -3.37,-0.506 C 28.112,29.746 27.066,28.942 25.96,28.092 22.428,25.376 18.036,22 12,22 7.172,22 4.692,24.478 0.585999,28.586 L 3.4,31.428 C 4.49,30.574 11.464,31.4 14.504,33.816 19.022,37.406 22.284,40 26,40 c 5.318,0 9.758,-3.482 11.88,-9.316 l -3.668,-1.578 c -0.45,0.896 -1.046,1.444 -1.828,1.676 z"
     fill="black"
     id="path254"
     style="fill:#ffffff" />
</svg>
