<svg width="48" height="48" viewBox="0 0 48 48" fill="none" xmlns="http://www.w3.org/2000/svg">
<path d="M44.21 15.106C43.762 16.002 43.164 16.552 42.382 16.782C41.154 17.148 39.696 16.678 39.012 16.276C38.11 15.746 37.064 14.942 35.958 14.092C32.428 11.376 28.036 8 22 8C17.172 8 14.692 10.478 10.586 14.586L13.4 17.428C14.492 16.578 21.462 17.398 24.504 19.816C29.022 23.406 32.284 26 36 26C41.318 26 45.758 22.518 47.88 16.684L44.21 15.106ZM32.384 30.782C31.158 31.142 29.698 30.678 29.014 30.276C28.112 29.746 27.066 28.942 25.96 28.092C22.428 25.376 18.036 22 12 22C7.172 22 4.692 24.478 0.585999 28.586L3.4 31.428C4.49 30.574 11.464 31.4 14.504 33.816C19.022 37.406 22.284 40 26 40C31.318 40 35.758 36.518 37.88 30.684L34.212 29.106C33.762 30.002 33.166 30.55 32.384 30.782Z" fill="black"/>
</svg>
