<svg width="32" height="32" viewBox="0 0 32 32" fill="none" xmlns="http://www.w3.org/2000/svg">
<path d="M27.0703 3.97911C26.685 3.99587 26.3314 4.10669 26.0208 4.22911C25.7339 4.34213 24.7034 4.77524 23.0625 5.46349C21.4216 6.15173 19.2473 7.06426 16.9297 8.03901C12.2945 9.98851 7.08565 12.1814 4.41667 13.3046C4.32501 13.3428 3.95278 13.4568 3.54167 13.7708C3.1296 14.0855 2.67188 14.7686 2.67188 15.5156C2.67188 16.1182 2.97269 16.7319 3.33594 17.0833C3.69918 17.4347 4.06732 17.5989 4.375 17.7213V17.7187C5.41504 18.133 8.52092 19.3759 9.26042 19.6718C9.52272 20.4579 10.6488 23.823 10.9167 24.6692H10.9141C11.1034 25.2682 11.288 25.6585 11.5443 25.9843C11.6724 26.1472 11.8254 26.2949 12.013 26.4114C12.085 26.4561 12.1647 26.4908 12.2448 26.5234C12.2559 26.5281 12.2674 26.5293 12.2786 26.5338L12.2474 26.526C12.2706 26.5353 12.2914 26.5491 12.3151 26.5572C12.3537 26.5705 12.3804 26.5701 12.4323 26.5807C12.615 26.6369 12.7973 26.6744 12.9661 26.6744C13.691 26.6744 14.1354 26.2812 14.1354 26.2812L14.1641 26.2604L17.2943 23.6119L21.1276 27.1588C21.1976 27.2577 21.7461 27.9999 23.0156 27.9999C23.7731 27.9999 24.372 27.625 24.7552 27.2317C25.1384 26.8384 25.3771 26.436 25.4844 25.8906L25.487 25.888C25.5726 25.4477 29.2422 7.02078 29.2422 7.02078L29.2344 7.05203C29.3486 6.54224 29.3823 6.04923 29.2474 5.54682C29.1125 5.04441 28.7484 4.55411 28.3099 4.29682C27.8714 4.03953 27.4556 3.96235 27.0703 3.97911ZM26.5443 6.89838C26.3993 7.62642 23.112 24.1411 22.9089 25.177L17.3724 20.0546L13.6302 23.2187L14.6667 19.1666C14.6667 19.1666 21.8167 11.9291 22.2474 11.5078C22.5941 11.1704 22.6667 11.0522 22.6667 10.9348C22.6667 10.7788 22.5864 10.6666 22.401 10.6666C22.2344 10.6666 22.008 10.8263 21.888 10.901C20.3632 11.8517 13.8684 15.5529 10.6745 17.3697C10.4823 17.2927 7.59653 16.1339 6.04167 15.513C8.80735 14.349 13.5482 12.3544 17.9635 10.4973C20.2808 9.52276 22.4544 8.60941 24.0937 7.92182C25.4775 7.34141 26.1994 7.04089 26.5443 6.89838ZM22.8698 25.3671H22.8724L22.8698 25.3749C22.8715 25.3663 22.8685 25.3739 22.8698 25.3671Z" fill="#FF88FF"/>
</svg>
