<svg width="48" height="48" viewBox="0 0 48 48" fill="none" xmlns="http://www.w3.org/2000/svg">
<path d="M6 6V42H42V6H6ZM27.332 24.902H23.096V38H19.682V24.902H15.534V22H27.332V24.902ZM27.996 37.252V33.75C27.996 33.75 29.908 35.192 32.204 35.192C34.5 35.192 34.41 33.692 34.41 33.486C34.41 31.308 27.908 31.308 27.908 26.484C27.908 19.922 37.382 22.512 37.382 22.512L37.264 25.63C37.264 25.63 35.676 24.57 33.88 24.57C32.086 24.57 31.438 25.424 31.438 26.336C31.438 28.69 38 28.454 38 33.192C38 40.488 27.996 37.252 27.996 37.252Z" fill="black"/>
</svg>
